<svg id="Capa_1" enable-background="new 0 0 512 512" height="512" viewBox="0 0 512 512" width="512" xmlns="http://www.w3.org/2000/svg"><path d="m444.394 3.996h-285.072c-37.183 0-67.606 30.423-67.606 67.606v23.004h257.871c37.183 0 67.606 30.423 67.606 67.606v168.547h27.201c37.183 0 67.606-30.423 67.606-67.606v-191.551c0-37.184-30.423-67.606-67.606-67.606z" fill="#60b8fe"/><path d="m396.461 91.515h-285.072c-6.836 0-13.441 1.036-19.673 2.946v.145h257.871c37.183 0 67.606 30.423 67.606 67.606v168.547h27.2c6.836 0 13.441-1.036 19.673-2.946v-168.692c.001-37.183-30.422-67.606-67.605-67.606z" fill="#23a8fe"/><path d="m352.678 91.515h-285.072c-37.183 0-67.606 30.423-67.606 67.606v191.55c0 37.183 30.423 67.606 67.606 67.606h171.096c7.335 0 12.811 6.826 11.133 13.966-4.537 19.317-11.48 39.745-21.744 60.686-4.609 9.405 5.876 18.966 14.782 13.454 25.751-15.937 62.389-42.61 93.244-80.317 4.056-4.957 10.156-7.79 16.561-7.79 37.183 0 67.606-30.423 67.606-67.606v-191.55c0-37.182-30.423-67.605-67.606-67.605z" fill="#fee55a"/><path d="m293.618 432.243c1.677-7.141-3.798-13.966-11.133-13.966h-43.783c7.335 0 12.81 6.825 11.133 13.966-4.537 19.317-11.48 39.745-21.744 60.686-4.609 9.405 5.876 18.966 14.782 13.454 9.88-6.115 21.365-13.816 33.509-23.108 7.832-17.563 13.399-34.696 17.236-51.032z" fill="#ffd301"/><path d="m43.783 350.671v-191.55c0-37.183 30.423-67.606 67.606-67.606h-43.783c-37.183 0-67.606 30.423-67.606 67.606v191.55c0 37.183 30.423 67.606 67.606 67.606h43.783c-37.184 0-67.606-30.422-67.606-67.606z" fill="#ffd301"/><path d="m337.833 222.213h-68.503c-2.403 0-3.858-2.654-2.566-4.68l5.653-8.863c9.576-15.012 14.663-32.448 14.663-50.255 0-9.59-7.774-17.364-17.364-17.364-6.746 0-12.877 3.902-15.731 10.015-6.469 13.854-20.113 39.44-40.546 59.603-9.901 9.771-23.299 15.181-37.209 15.181h-17.658v119.511h10.671c9.973 0 19.791 2.47 28.576 7.19 8.785 4.72 18.603 7.19 28.576 7.19h87.954c9.494 0 17.191-7.697 17.191-17.191 0-9.494-7.697-17.191-17.191-17.191h7.828c9.494 0 17.191-7.697 17.191-17.191 0-9.494-7.697-17.191-17.191-17.191h7.828c9.494 0 17.191-7.697 17.191-17.191 0-9.494-7.697-17.191-17.191-17.191h7.828c9.494 0 17.191-7.697 17.191-17.191 0-9.494-7.697-17.191-17.191-17.191z" fill="#fed2a4"/><path d="m185.118 239.429c0-7.745 4.572-14.405 11.154-17.48-6.308 2.557-13.111 3.902-20.043 3.902h-17.658v119.511h10.671c5.385 0 10.719.744 15.876 2.15z" fill="#ffbd86"/><path d="m153.814 212.957h-30.616v141.826h30.616c3.766 0 6.819-3.053 6.819-6.819v-128.189c-.001-3.765-3.053-6.818-6.819-6.818z" fill="#dfebfa"/><path d="m123.198 212.957h18.717v141.826h-18.717z" fill="#b1dbfc"/><path d="m115.511 199.909h-40.503c-5.383 0-9.747 4.364-9.747 9.747v148.428c0 5.383 4.364 9.747 9.747 9.747h40.503c5.383 0 9.747-4.364 9.747-9.747v-148.428c.001-5.383-4.363-9.747-9.747-9.747z" fill="#60b8fe"/><path d="m95.26 358.083v-148.427c0-5.383 4.364-9.747 9.747-9.747h-29.999c-5.384 0-9.747 4.364-9.747 9.747v148.428c0 5.383 4.364 9.747 9.747 9.747h29.999c-5.383 0-9.747-4.364-9.747-9.748z" fill="#23a8fe"/><g fill="#ffbd86"><path d="m314.348 325.36h7.828.002-51.795c-4.267 0-7.726 3.459-7.726 7.726s3.459 7.726 7.726 7.726h61.068c-.871-8.677-8.195-15.452-17.103-15.452z"/><path d="m322.18 290.978h-51.797c-4.267 0-7.726 3.459-7.726 7.726s3.459 7.726 7.726 7.726h68.896c-.871-8.676-8.193-15.45-17.099-15.452z"/><path d="m262.657 264.322c0 4.267 3.459 7.726 7.726 7.726h76.724c-.871-8.678-8.195-15.452-17.102-15.453h-59.622c-4.267.001-7.726 3.46-7.726 7.727z"/><path d="m262.657 229.94c0 4.267 3.459 7.726 7.726 7.726h84.553c-.871-8.678-8.196-15.453-17.103-15.453h-67.449c-4.268 0-7.727 3.46-7.727 7.727z"/></g></svg>