<svg id="Layer_1" enable-background="new 0 0 512.003 512.003" height="512" viewBox="0 0 512.003 512.003" width="512" xmlns="http://www.w3.org/2000/svg"><g><g><g><g><path d="m267.972 395.002h130.004v109.5h-130.004z" fill="#7384b2"/><g><g><g fill="#ffe0e0"><path d="m317.736 203.173v23.074c0 23.303-32.342 23.819-44.769 22.12-48.813-6.676-86.576-48.583-86.774-99.2-.027-6.97-5.291-12.992-12.244-13.381-7.511-.42-13.733 5.553-13.733 12.979 0 60.406 42.507 111.057 99.153 123.57 4.477.989 7.685 4.927 7.68 9.516v.081l.307 123.103h130.619l-.307-123.103v-.081c-.004-4.589 3.203-8.527 7.68-9.516 56.646-12.512 99.153-63.164 99.153-123.57 0-7.427-6.222-13.399-13.733-12.979-6.952.389-12.216 6.412-12.244 13.381-.197 50.223-37.377 91.872-85.639 99.038-12.395 1.84-48.307.479-48.307-22.718v-22.314z"/><path d="m332.432 214.028h-.085c-23.531 0-42.607-19.076-42.607-42.607v-21.845c0-23.531 19.076-42.607 42.607-42.607h.085c23.531 0 42.607 19.076 42.607 42.607v21.845c0 23.531-19.075 42.607-42.607 42.607z"/></g><g><path d="m392.885 248.205c-7.096 1.054-21.891 1.049-33.252-3.492v7.35c0 15.078-12.212 27.301-27.275 27.301-15.064 0-27.275-12.223-27.275-27.301v-7.257c-10.469 4.792-24.771 4.565-32.116 3.56-9.293-1.271-18.182-3.826-26.491-7.468l-10.03 23.998c7.311 3.177 14.977 5.683 22.922 7.438 4.477.989 7.685 4.927 7.68 9.516v.081l.307 123.102h130.619l-.307-123.102v-.081c-.004-4.589 3.203-8.527 7.68-9.516 8.026-1.773 15.767-4.313 23.145-7.536l-10.029-23.995c-8.033 3.545-16.613 6.071-25.578 7.402z" fill="#ffdb63"/></g></g><g fill="#ffe0e0"><path d="m165.022 368.382v23.074c0 23.303-32.342 23.819-44.769 22.12-48.813-6.676-86.576-48.583-86.774-99.2-.027-6.97-5.291-12.992-12.244-13.381-7.511-.42-13.733 5.552-13.733 12.979 0 60.406 42.507 111.057 99.153 123.57 4.477.989 7.685 4.927 7.68 9.516v.081 57.361h130.619v-57.361-.081c-.004-4.589 3.203-8.527 7.68-9.516 56.646-12.512 99.153-63.164 99.153-123.57 0-7.427-6.222-13.399-13.733-12.979-6.952.389-12.216 6.412-12.244 13.381-.197 50.223-37.377 91.872-85.639 99.038-12.395 1.84-48.307.479-48.307-22.718v-22.314z"/><path d="m179.718 379.237h-.085c-23.531 0-42.607-19.076-42.607-42.607v-21.845c0-23.531 19.076-42.607 42.607-42.607h.085c23.531 0 42.607 19.076 42.607 42.607v21.845c0 23.531-19.075 42.607-42.607 42.607z"/></g></g><g><path d="m324.382 330.78c-7.205 42.653-41.319 76.265-84.21 82.634-7.096 1.054-21.891 1.049-33.252-3.492v7.35c0 15.078-12.212 27.301-27.275 27.301-15.064 0-27.275-12.223-27.275-27.301v-7.257c-10.469 4.792-24.771 4.565-32.116 3.56-43.423-5.939-78.076-39.766-85.345-82.795l-25.769 3.533c8.296 51.174 47.36 92.153 97.515 103.231 4.477.989 7.685 4.927 7.68 9.516v.081 57.361h130.619v-57.361-.081c-.004-4.589 3.203-8.527 7.68-9.516 50.155-11.078 89.219-52.058 97.515-103.232z" fill="#f54c5a"/></g></g></g><g><path d="m179.718 272.179h-.085c-23.531 0-42.607 19.076-42.607 42.607h85.299c0-23.532-19.075-42.607-42.607-42.607z" fill="#7384b2"/></g><g><path d="m332.432 106.97h-.085c-23.531 0-42.607 19.076-42.607 42.607h85.299c0-23.531-19.075-42.607-42.607-42.607z" fill="#f5a26a"/></g></g><g fill="#060606"><path d="m431.385 271.718c19.597-8.192 37.248-22.054 50.602-38.477 19.355-23.805 30.015-53.806 30.015-84.477 0-26.775-40.873-26.167-40.977.373-.178 45.23-34.439 84.997-79.24 91.648-17.058 2.536-42.927-1.086-39.706-23.275 17.891-7.656 30.461-25.432 30.461-46.091v-21.845c0-27.629-22.478-50.106-50.192-50.106-27.629 0-50.107 22.478-50.107 50.106v21.845c0 19.695 11.427 36.766 27.996 44.95 1.685 22.271-16.142 27.319-36.252 24.565-23.937-3.273-45.407-15.628-60.454-34.788-5.989-7.628-17.787 1.638-11.797 9.264 9.66 12.3 21.608 22.179 35.063 29.201l-4.229 10.119c-14.616-7.513-27.696-18.039-38.197-30.953-17.188-21.139-26.653-47.779-26.653-75.014 0-7.446 10.949-6.807 10.978.432.043 11.032 1.752 21.918 5.08 32.354 2.946 9.238 17.237 4.683 14.291-4.557-2.863-8.979-4.333-18.352-4.371-27.855-.104-26.54-40.978-27.146-40.978-.373 0 30.671 10.66 60.672 30.015 84.477 19.075 23.46 45.718 39.944 75.021 46.417 1.22.541 1.819 1.305 1.797 2.292l.295 118.391c-16.616 6.675-66.103 14.039-60.48-17.621 17.891-7.655 30.461-25.431 30.461-46.09v-21.845c0-27.629-22.478-50.106-50.192-50.106-27.629 0-50.107 22.478-50.107 50.106v21.845c0 19.695 11.427 36.766 27.996 44.949 1.686 22.272-16.141 27.32-36.252 24.566-45.592-6.235-80.11-45.7-80.291-91.798-.104-26.54-40.977-27.148-40.977-.373 0 30.495 10.776 60.815 30.015 84.477 19.075 23.46 45.718 39.944 75.021 46.417 1.059.234 1.798 1.133 1.797 2.273v8.873c0 9.697 15 9.697 15 0v-8.947c.008-8.154-5.57-15.082-13.563-16.846-26.01-5.746-49.669-20.39-66.618-41.233-11.494-14.137-19.513-30.739-23.579-48.329l10.907-1.495c10.248 42.334 45.696 75.749 90.254 81.843 1.924.264 13.693 1.688 25.764-.807 1.491 17.824 16.454 31.874 34.643 31.874 18.293 0 33.321-14.211 34.667-32.179 10.981 2.219 21.905 1.691 26.962.939 25.255-3.75 48.479-16.485 65.392-35.859 11.55-13.231 19.602-28.98 23.647-45.811l10.902 1.494c-4.066 17.59-12.085 34.193-23.579 48.33-16.949 20.844-40.607 35.487-66.617 41.233-7.994 1.764-13.571 8.691-13.563 16.92v49.861h-115.621v-5c0-9.697-15-9.697-15 0v12.5c0 4.143 3.358 7.5 7.5 7.5h130.619c4.142 0 7.5-3.357 7.5-7.5v-57.449c1.64-2.88 4.312-4.122 8.018-3.726v61.176c0 4.143 3.358 7.5 7.5 7.5h130.004c4.142 0 7.5-3.357 7.5-7.5v-99.468c0-.003 0-.006 0-.009s0-.006 0-.01l-.308-123.172c-.003-2.957 22.313-8.495 26.217-10.126zm-415.759 54.136c-.399-3.938-.625-7.901-.625-11.88 0-7.445 10.949-6.808 10.977.432.013 3.353.183 6.675.503 9.96zm164.092-46.175c16.784 0 30.846 11.842 34.292 27.606h-68.669c3.447-15.764 17.52-27.606 34.377-27.606zm-35.192 56.951v-14.345h70.299v14.345c0 19.357-15.749 35.106-35.107 35.106h-.085c-19.358.001-35.107-15.748-35.107-35.106zm54.894 80.642c0 27.227-42.049 24.014-39.551-2.812 10.339-6.611 12.653-16.821 12.653-28.237 4.025.575 7.834.661 11.842.29 0 12.18 3.961 22.091 15.056 28.179zm152.714-167.792c2.026 28.899-40.936 28.394-39.551-.219 9.62-6.149 13.529-17.169 12.653-28.246 4.026.575 7.834.661 11.842.29-.955 11.869 4.511 22.394 15.056 28.175zm-19.702-135.01c16.784 0 30.846 11.842 34.292 27.606h-68.669c3.447-15.764 17.52-27.606 34.377-27.606zm-35.192 56.951v-14.345h70.299v14.345c0 19.358-15.749 35.107-35.107 35.107h-.085c-19.358.001-35.107-15.748-35.107-35.107zm35.564 152.943c.319-3.299.493-6.621.506-9.959.028-7.239 10.978-7.877 10.978-.432 0 3.979-.226 7.941-.625 11.879zm57.672 172.638h-48.569v-34.733h3.902c4.142 0 7.5-3.357 7.5-7.5s-3.358-7.5-7.5-7.5h-22.805c-4.142 0-7.5 3.357-7.5 7.5s3.358 7.5 7.5 7.5h3.902v34.733h-51.435v-58.747c14.892-6.051 28.661-14.783 40.546-25.721h74.458v84.468zm13.256-231.991c-7.993 1.765-13.571 8.692-13.564 16.939l.289 115.584h-60.456c18.786-23.526 29.287-53.454 29.287-83.561 0-26.775-40.873-26.167-40.978.373-.124 31.487-16.885 61.531-43.485 78.329l-.276-110.818c.008-8.154-5.57-15.082-13.563-16.846-4.989-1.102-9.888-2.538-14.673-4.275l4.236-10.136c14.907 5.28 31.53 7.62 47.166 4.387 1.491 17.825 16.453 31.877 34.643 31.877 18.302 0 33.337-14.226 34.669-32.207 15.976 3.217 32.069 1.302 47.351-4.181l4.252 10.174c-4.856 1.775-9.831 3.242-14.898 4.361zm55.647-45.246c17.081-19.565 26.543-44.627 26.646-70.568.028-7.239 10.977-7.877 10.977-.432 0 27.235-9.466 53.875-26.653 75.014-10.449 12.85-23.454 23.333-37.982 30.838l-4.254-10.179c11.745-6.174 22.382-14.496 31.266-24.673z"/><path d="m137.026 245.407c9.652 0 9.668-15 0-15-9.651 0-9.667 15 0 15z"/><path d="m88.156 332.959c9.652 0 9.668-15 0-15-9.652 0-9.668 15 0 15z"/><path d="m7.246 144.131c9.652 0 9.668-15 0-15-9.651 0-9.667 15 0 15z"/><path d="m71.656 73.088c9.652 0 9.668-15 0-15-9.651 0-9.667 15 0 15z"/><path d="m209.426 102.894c9.652 0 9.668-15 0-15-9.651 0-9.667 15 0 15z"/><path d="m240.641 172.997c9.652 0 9.668-15 0-15-9.652 0-9.668 15 0 15z"/><path d="m246.369 15.062c9.652 0 9.668-15 0-15-9.652 0-9.667 15 0 15z"/><path d="m484.582 80.588c9.652 0 9.668-15 0-15-9.652 0-9.668 15 0 15z"/><path d="m420.322 43.084c9.652 0 9.668-15 0-15-9.651 0-9.667 15 0 15z"/><path d="m366.343 80.588c9.652 0 9.668-15 0-15-9.652 0-9.668 15 0 15z"/><path d="m480.847 295.111c-9.652 0-9.668 15 0 15 9.652 0 9.668-15 0-15z"/><path d="m447.312 446.002c-9.652 0-9.668 15 0 15 9.652 0 9.668-15 0-15z"/><path d="m480.847 416.233c9.652 0 9.668-15 0-15-9.652 0-9.668 15 0 15z"/><path d="m71.656 497.002c-9.652 0-9.668 15 0 15 9.652 0 9.668-15 0-15z"/><path d="m20.033 217.868c-2.929 2.93-2.929 7.678 0 10.607l28.546 28.546c1.464 1.464 3.384 2.196 5.303 2.196s3.839-.732 5.303-2.196c2.929-2.93 2.929-7.678 0-10.607l-28.545-28.546c-2.929-2.927-7.678-2.927-10.607 0z"/><path d="m7.508 33.51c1.157 0 2.332-.27 3.432-.836l35.879-18.506c3.681-1.899 5.126-6.423 3.228-10.104-1.899-3.681-6.422-5.124-10.104-3.228l-35.879 18.506c-3.681 1.899-5.126 6.423-3.228 10.104 1.332 2.582 3.954 4.064 6.672 4.064z"/><path d="m83.008 177.824c.577.135 1.153.2 1.72.2 3.403 0 6.484-2.332 7.295-5.788l9.225-39.303c.946-4.032-1.556-8.069-5.588-9.016-4.036-.945-8.069 1.556-9.016 5.588l-9.225 39.303c-.945 4.032 1.557 8.069 5.589 9.016z"/><path d="m472.512 362.456c2.645-3.188 2.206-7.916-.982-10.562l-31.066-25.781c-3.188-2.646-7.917-2.206-10.561.981-2.645 3.188-2.206 7.916.982 10.562l31.066 25.781c1.4 1.162 3.098 1.729 4.786 1.729 2.153 0 4.292-.923 5.775-2.71z"/><path d="m38.072 443.111c-3.188-2.646-7.917-2.208-10.561.982l-25.781 31.067c-2.645 3.188-2.206 7.915.982 10.561 1.4 1.162 3.098 1.729 4.786 1.729 2.154 0 4.292-.923 5.775-2.711l25.781-31.066c2.645-3.189 2.205-7.917-.982-10.562z"/><path d="m509.291 467.664c-3.188-2.646-7.917-2.207-10.561.982l-25.781 31.066c-2.645 3.188-2.206 7.915.982 10.561 1.4 1.162 3.098 1.728 4.786 1.728 2.154 0 4.292-.923 5.775-2.711l25.781-31.066c2.645-3.187 2.206-7.914-.982-10.56z"/><path d="m126.161 33.688 36.457 17.339c1.04.494 2.136.729 3.216.729 2.804 0 5.494-1.58 6.778-4.28 1.779-3.741.189-8.216-3.552-9.995l-36.457-17.339c-3.742-1.778-8.215-.188-9.994 3.552s-.188 8.215 3.552 9.994z"/><path d="m275.284 87.176c1.887 0 3.776-.708 5.234-2.129l28.913-28.175c2.966-2.891 3.028-7.639.137-10.605-2.892-2.968-7.641-3.028-10.606-.137l-28.913 28.175c-2.966 2.891-3.028 7.639-.137 10.605 1.47 1.509 3.42 2.266 5.372 2.266z"/><path d="m437.756 156.322c1.47 1.509 3.42 2.266 5.372 2.266 1.887 0 3.776-.708 5.234-2.129 2.966-2.891 3.028-7.639.137-10.605l-28.175-28.912c-2.891-2.968-7.64-3.027-10.605-.137-2.966 2.891-3.028 7.639-.137 10.605z"/><path d="m463.45 14.904 39.84 6.522c.411.067.818.1 1.221.1 3.608 0 6.79-2.612 7.392-6.289.669-4.088-2.102-7.944-6.189-8.613l-39.84-6.522c-4.09-.673-7.944 2.103-8.613 6.189-.67 4.087 2.101 7.944 6.189 8.613z"/></g></g></svg>