<?xml version="1.0" encoding="iso-8859-1"?>
<!-- Generator: Adobe Illustrator 19.0.0, SVG Export Plug-In . SVG Version: 6.00 Build 0)  -->
<svg version="1.1" id="Capa_1" xmlns="http://www.w3.org/2000/svg" xmlns:xlink="http://www.w3.org/1999/xlink" x="0px" y="0px"
	 viewBox="0 0 512 512" style="enable-background:new 0 0 512 512;" xml:space="preserve">
<path style="fill:#FF525D;" d="M259.869,190.273v37.579c0,0.247,0.01,0.494,0.041,0.752c0.072,0.731,1.792,18.146,6.787,36.559
	c7.291,26.879,17.909,42.059,31.575,45.117c1.72,0.381,3.46,0.577,5.201,0.577c15.097,0,31.06-14.449,48.608-43.943
	c2.173-3.666,0.968-8.403-2.688-10.587c-3.677-2.183-8.414-0.978-10.597,2.688c-21.091,35.447-33.006,37.115-37.157,36.189
	c-13.522-3.028-23.491-40.957-26.209-66.6c-0.041-0.381-0.072-0.752-0.113-1.123v-37.208c0-4.274-3.46-7.724-7.724-7.724
	S259.869,185.999,259.869,190.273z"/>
<path style="fill:#EF4152;" d="M475.322,410.092c0.937,0.371,1.905,0.546,2.863,0.546c3.069,0,5.963-1.833,7.168-4.851
	c4.408-11.019,7.765-21.575,10.278-31.616c8.589-34.355,7.219-62.594,3.903-81.841c-4.706-27.322-14.201-43.047-14.603-43.696
	c-2.224-3.646-6.982-4.789-10.618-2.554c-3.635,2.224-4.778,6.972-2.564,10.607c0.175,0.299,8.599,14.541,12.698,39.072
	c2.904,17.373,4.037,42.8-3.615,73.881c-2.358,9.619-5.561,19.783-9.814,30.411C469.431,404.006,471.357,408.506,475.322,410.092z"
	/>
<path style="fill:#C19157;" d="M464.658,50.946v87.65c0,27.723-22.471,50.194-50.194,50.194h-1.617
	c-20.525,0-38.073-12.729-45.179-30.72c-1.988-5.015-3.162-10.453-3.347-16.127c-0.031-0.577-0.041-1.153-0.041-1.73v-13.779
	h-24.335l24.335-75.487l41.698-28.022L464.658,50.946z"/>
<g>
	<path style="fill:#A5733C;" d="M402.411,187.661c3.357,0.741,6.848,1.133,10.432,1.133h1.617c27.723,0,50.194-22.471,50.194-50.194
		V50.95l-22.656-10.824V138.6C441.998,162.688,425.037,182.801,402.411,187.661z"/>
	<path style="fill:#A5733C;" d="M453.439,95.828c6.986-6.986,18.314-6.986,25.3,0c6.986,6.986,6.986,18.314,0,25.3
		c-6.986,6.986-18.314,6.986-25.3,0"/>
</g>
<path style="fill:#FFFFFF;" d="M395.339,141.685c-5.386,10.721-16.405,16.776-27.672,16.385c-1.988-5.015-3.162-10.453-3.347-16.127
	c6.601,2.152,13.996-0.793,17.219-7.188c1.915-3.81,6.56-5.355,10.37-3.44C395.72,133.23,397.255,137.875,395.339,141.685z"/>
<path style="fill:#494B5B;" d="M386.502,101.723c4.266,0,7.724-3.458,7.724-7.724V83.848c0-4.266-3.458-7.724-7.724-7.724
	s-7.724,3.458-7.724,7.724V94C378.778,98.265,382.237,101.723,386.502,101.723z"/>
<path style="fill:#5C5E70;" d="M340.283,262.962c0,9.433,1.761,27.311,4.974,49.237c0.371,2.523,0.752,5.098,1.164,7.724
	c0.391,2.533,0.803,5.108,1.226,7.724c10.937,66.909,33.006,158.554,59.092,174.28c2.533,1.534,5.118,2.348,7.724,2.348
	c2.605,0,5.19-0.814,7.724-2.348c26.086-15.726,48.155-107.371,59.092-174.28c0.422-2.616,0.834-5.19,1.226-7.724
	c0.412-2.626,0.793-5.201,1.164-7.724c3.213-21.925,4.974-39.803,4.974-49.237c0-40.967-33.212-74.169-74.179-74.169
	C373.495,188.793,340.283,221.995,340.283,262.962z"/>
<path style="fill:#494B5B;" d="M414.463,504.275c30.452,0,56.621-110.697,68.041-184.352c3.955-25.427,6.138-46.446,6.138-56.96
	c0-40.967-33.212-74.169-74.179-74.169c22.1,0,40.02,33.202,40.02,74.169c0,10.515-1.174,31.534-3.306,56.96
	C445.008,393.578,430.889,504.275,414.463,504.275z"/>
<path style="fill:#FF525D;" d="M340.285,262.963c0,10.515,2.183,31.534,6.138,56.96h136.083c3.955-25.427,6.138-46.446,6.138-56.96
	c0-40.967-33.212-74.169-74.179-74.169S340.285,221.996,340.285,262.963z"/>
<path style="fill:#EF4152;" d="M454.484,262.963c0,10.515-1.174,31.534-3.306,56.96h31.328c3.955-25.427,6.138-46.446,6.138-56.96
	c0-40.967-33.212-74.169-74.179-74.169C436.565,188.794,454.484,221.996,454.484,262.963z"/>
<g>
	<path style="fill:#FF6E7C;" d="M459.027,203.665c-12.41-9.341-27.837-14.871-44.561-14.871l23.048,45.189L459.027,203.665z"/>
	<path style="fill:#FF6E7C;" d="M369.894,203.665v0.01l21.524,30.308l23.048-45.189
		C397.741,188.794,382.304,194.324,369.894,203.665z"/>
</g>
<path style="fill:#494B5B;" d="M406.739,361.981v139.945c2.533,1.534,5.118,2.348,7.724,2.348c2.605,0,5.19-0.814,7.724-2.348
	V361.981c0-4.264-3.45-7.724-7.724-7.724C410.199,354.257,406.739,357.718,406.739,361.981z"/>
<path style="fill:#797B89;" d="M345.257,312.199c0.371,2.523,0.752,5.098,1.164,7.724c0.391,2.533,0.803,5.108,1.226,7.724h133.632
	c0.422-2.616,0.834-5.19,1.226-7.724c0.412-2.626,0.793-5.201,1.164-7.724H345.257z"/>
<path style="fill:#FFFFFF;" d="M415.152,238.524c7.094,0,10.396-9.166,4.904-13.692c-2.548-2.1-6.277-2.309-9.06-0.539
	c-2.816,1.792-4.179,5.35-3.283,8.561C408.635,236.153,411.718,238.524,415.152,238.524z"/>
<path style="fill:#3A3C49;" d="M376.868,512h75.194c4.266,0,7.724-3.458,7.724-7.724c0-4.266-3.458-7.724-7.724-7.724h-75.194
	c-4.266,0-7.724,3.458-7.724,7.724C369.144,508.542,372.603,512,376.868,512z"/>
<g>
	<path style="fill:#C19157;" d="M259.869,190.273v37.579c0,0.247,0.01,0.494,0.041,0.752h15.52
		c-0.041-0.381-0.072-0.752-0.113-1.123v-37.208c0-4.274-3.46-7.724-7.724-7.724S259.869,185.999,259.869,190.273z"/>
	<path style="fill:#C19157;" d="M475.322,410.092c0.937,0.371,1.905,0.546,2.863,0.546c3.069,0,5.963-1.833,7.168-4.851
		c4.408-11.019,7.765-21.575,10.278-31.616l-14.799-4.531c-2.358,9.619-5.561,19.783-9.814,30.411
		C469.431,404.006,471.357,408.506,475.322,410.092z"/>
</g>
<path style="fill:#5C5E70;" d="M338.927,0h78.997c28.135,0,50.944,22.808,50.944,50.944v39.869l0,0
	c-22.019,0-39.869-17.85-39.869-39.869l0,0h-90.072c-14.068,0-25.472-11.404-25.472-25.472l0,0C313.455,11.404,324.859,0,338.927,0z
	"/>
<path style="fill:#494B5B;" d="M417.925,0h-22.656c28.135,0,50.944,22.808,50.944,50.944v32.8
	c6.434,4.453,14.239,7.069,22.656,7.069l0,0V50.944C468.868,22.808,446.06,0,417.925,0z"/>
<g>
	<path style="fill:#34ABE0;" d="M252.13,190.273v37.579c0,0.247-0.01,0.494-0.041,0.752c-0.072,0.731-1.792,18.146-6.787,36.559
		c-7.291,26.879-17.909,42.059-31.575,45.117c-1.72,0.381-3.46,0.577-5.201,0.577c-15.097,0-31.06-14.449-48.608-43.943
		c-2.173-3.666-0.968-8.403,2.688-10.587c3.677-2.183,8.414-0.978,10.597,2.688c21.091,35.447,33.006,37.115,37.157,36.189
		c13.522-3.028,23.491-40.957,26.209-66.6c0.041-0.381,0.072-0.752,0.113-1.123v-37.208c0-4.274,3.46-7.724,7.724-7.724
		S252.13,185.999,252.13,190.273z"/>
	<path style="fill:#34ABE0;" d="M36.678,410.092c-0.937,0.371-1.905,0.546-2.863,0.546c-3.069,0-5.963-1.833-7.168-4.851
		c-4.408-11.019-7.765-21.575-10.278-31.616c-8.589-34.355-7.219-62.594-3.903-81.841c4.706-27.322,14.201-43.047,14.603-43.696
		c2.224-3.646,6.982-4.789,10.618-2.554c3.635,2.224,4.778,6.972,2.564,10.607c-0.175,0.299-8.599,14.541-12.698,39.072
		c-2.904,17.373-4.037,42.8,3.615,73.881c2.358,9.619,5.561,19.783,9.814,30.411C42.568,404.006,40.642,408.506,36.678,410.092z"/>
</g>
<g>
	<path style="fill:#FFD15C;" d="M256.761,157.83c-4.266,0-7.724-3.458-7.724-7.724v-27.805c0-4.266,3.458-7.724,7.724-7.724
		c4.266,0,7.724,3.458,7.724,7.724v27.805C264.485,154.372,261.027,157.83,256.761,157.83z"/>
	<path style="fill:#FFD15C;" d="M233.371,166.239c-1.976,0-3.954-0.754-5.461-2.263l-19.661-19.661
		c-3.016-3.016-3.016-7.907,0-10.923s7.907-3.016,10.922,0l19.661,19.661c3.016,3.016,3.016,7.907,0,10.924
		C237.325,165.485,235.349,166.239,233.371,166.239z"/>
	<path style="fill:#FFD15C;" d="M279.247,168.423c-1.976,0-3.954-0.754-5.461-2.263c-3.016-3.016-3.016-7.906,0-10.922
		l19.661-19.661c3.016-3.016,7.907-3.016,10.922,0c3.016,3.016,3.016,7.906,0,10.922l-19.661,19.661
		C283.2,167.669,281.223,168.423,279.247,168.423z"/>
</g>
<path style="fill:#FFDC8D;" d="M147.723,50.947l24.334,75.486h-24.334v13.784c0,26.825-21.746,48.572-48.572,48.572h-1.617
	c-27.719,0-50.189-22.47-50.189-50.189V50.947l58.672-28.021L147.723,50.947z"/>
<path style="fill:#E8C57E;" d="M109.588,187.661c-3.357,0.741-6.848,1.133-10.432,1.133h-1.617
	c-27.723,0-50.194-22.471-50.194-50.194V50.95l22.656-10.824V138.6C70.001,162.688,86.962,182.801,109.588,187.661z"/>
<path style="fill:#F4A14E;" d="M94.075,0.003c-28.135,0-50.944,22.808-50.944,50.944v39.869l0,0C65.15,90.816,83,72.966,83,50.947
	l0,0h64.6c28.135,0,50.944-22.808,50.944-50.944C198.544,0.003,94.075,0.003,94.075,0.003z"/>
<path style="fill:#E28D40;" d="M71.967,50.947c0-28.135,22.808-50.944,50.944-50.944H94.075c-28.135,0-50.944,22.808-50.944,50.944
	v39.869c11.345,0,21.575-4.747,28.835-12.353V50.947z"/>
<path style="fill:#E8C57E;" d="M58.56,95.828c-6.986-6.986-18.314-6.986-25.3,0c-6.986,6.986-6.986,18.314,0,25.3
	c6.986,6.986,18.314,6.986,25.3,0"/>
<path style="fill:#FFFFFF;" d="M123.645,156.721c-16.421,0-29.78-13.359-29.78-29.78c0-4.266,3.458-7.724,7.724-7.724
	c4.266,0,7.724,3.458,7.724,7.724c0,7.903,6.429,14.332,14.332,14.332c4.266,0,7.724,3.458,7.724,7.724
	C131.369,153.263,127.911,156.721,123.645,156.721z"/>
<path style="fill:#494B5B;" d="M125.497,101.723c-4.266,0-7.724-3.458-7.724-7.724V83.848c0-4.266,3.458-7.724,7.724-7.724
	c4.266,0,7.724,3.458,7.724,7.724V94C133.221,98.265,129.762,101.723,125.497,101.723z"/>
<path style="fill:#5C5E70;" d="M171.716,262.962c0,9.433-1.761,27.311-4.974,49.237c-0.371,2.523-0.752,5.098-1.164,7.724
	c-0.391,2.533-0.803,5.108-1.226,7.724c-10.937,66.909-33.006,158.554-59.092,174.28c-2.533,1.534-5.118,2.348-7.724,2.348
	s-5.19-0.814-7.724-2.348C63.727,486.2,41.658,394.555,30.721,327.646c-0.422-2.616-0.834-5.19-1.226-7.724
	c-0.412-2.626-0.793-5.201-1.164-7.724c-3.213-21.925-4.974-39.803-4.974-49.237c0-40.967,33.212-74.169,74.179-74.169
	C138.504,188.793,171.716,221.995,171.716,262.962z"/>
<path style="fill:#494B5B;" d="M97.536,504.275c-30.452,0-56.621-110.697-68.041-184.352c-3.955-25.427-6.138-46.446-6.138-56.96
	c0-40.967,33.212-74.169,74.179-74.169c-22.1,0-40.02,33.202-40.02,74.169c0,10.515,1.174,31.534,3.306,56.96
	C66.991,393.578,81.11,504.275,97.536,504.275z"/>
<path style="fill:#34ABE0;" d="M171.714,262.963c0,10.515-2.183,31.534-6.138,56.96H29.493c-3.955-25.427-6.138-46.446-6.138-56.96
	c0-40.967,33.212-74.169,74.179-74.169S171.714,221.996,171.714,262.963z"/>
<path style="fill:#279FC9;" d="M57.515,262.963c0,10.515,1.174,31.534,3.306,56.96H29.493c-3.955-25.427-6.138-46.446-6.138-56.96
	c0-40.967,33.212-74.169,74.179-74.169C75.434,188.794,57.515,221.996,57.515,262.963z"/>
<g>
	<path style="fill:#78CAEF;" d="M52.972,203.665c12.41-9.341,27.837-14.871,44.561-14.871l-23.048,45.189L52.972,203.665z"/>
	<path style="fill:#78CAEF;" d="M142.105,203.665v0.01l-21.524,30.308l-23.048-45.189
		C114.258,188.794,129.695,194.324,142.105,203.665z"/>
</g>
<path style="fill:#494B5B;" d="M105.26,361.981v139.945c-2.533,1.534-5.118,2.348-7.724,2.348s-5.19-0.814-7.724-2.348V361.981
	c0-4.264,3.45-7.724,7.724-7.724C101.8,354.257,105.26,357.718,105.26,361.981z"/>
<path style="fill:#797B89;" d="M166.742,312.199c-0.371,2.523-0.752,5.098-1.164,7.724c-0.391,2.533-0.803,5.108-1.226,7.724H30.721
	c-0.422-2.616-0.834-5.19-1.226-7.724c-0.412-2.626-0.793-5.201-1.164-7.724H166.742z"/>
<path style="fill:#FFFFFF;" d="M96.847,238.524c-7.094,0-10.396-9.166-4.904-13.692c2.548-2.1,6.277-2.309,9.059-0.539
	c2.816,1.792,4.179,5.35,3.283,8.561C103.364,236.153,100.281,238.524,96.847,238.524z"/>
<path style="fill:#3A3C49;" d="M135.131,512H59.937c-4.266,0-7.724-3.458-7.724-7.724c0-4.266,3.458-7.724,7.724-7.724h75.194
	c4.266,0,7.724,3.458,7.724,7.724C142.855,508.542,139.396,512,135.131,512z"/>
<g>
	<path style="fill:#FFDC8D;" d="M252.13,190.273v37.579c0,0.247-0.01,0.494-0.041,0.752h-15.52c0.041-0.381,0.072-0.752,0.113-1.123
		v-37.208c0-4.274,3.46-7.724,7.724-7.724S252.13,185.999,252.13,190.273z"/>
	<path style="fill:#FFDC8D;" d="M36.678,410.092c-0.937,0.371-1.905,0.546-2.863,0.546c-3.069,0-5.963-1.833-7.168-4.851
		c-4.408-11.019-7.765-21.575-10.278-31.616l14.799-4.531c2.358,9.619,5.561,19.783,9.814,30.411
		C42.568,404.006,40.642,408.506,36.678,410.092z"/>
</g>
<g>
</g>
<g>
</g>
<g>
</g>
<g>
</g>
<g>
</g>
<g>
</g>
<g>
</g>
<g>
</g>
<g>
</g>
<g>
</g>
<g>
</g>
<g>
</g>
<g>
</g>
<g>
</g>
<g>
</g>
</svg>
