<svg id="Layer_1" enable-background="new 0 0 512 512" height="512" viewBox="0 0 512 512" width="512" xmlns="http://www.w3.org/2000/svg"><g><path d="m215.763 309.744-67.374 104.388-81.826-67.522 42.222-63.8s31.094-82.348 43.754-128.482l2.958-131.933c.979-12.639 11.517-22.395 24.189-22.395 6.511 0 12.434 2.565 16.802 6.758 4.358 4.183 7.17 10.003 7.438 16.504z" fill="#ffc39c"/><path d="m203.926 23.262c-.268-6.501-3.08-12.321-7.438-16.504-4.368-4.193-10.292-6.758-16.802-6.758-5.848 0-11.227 2.096-15.436 5.577.457.379.905.77 1.333 1.181 4.358 4.183 7.17 10.003 7.438 16.504l10.758 260.376c.702 16.987-3.871 33.776-13.091 48.061l-42.465 65.794 20.165 16.64 67.374-104.388z" fill="#fdaa8e"/><g><path d="m269.15 388.829 8.253 16.722c2.136 4.328 6.265 7.328 11.041 8.022l18.454 2.681c12.028 1.748 16.831 16.529 8.127 25.013l-13.353 13.016c-3.456 3.369-5.033 8.223-4.217 12.98l3.152 18.379c2.055 11.979-10.519 21.115-21.277 15.459l-16.505-8.677c-4.272-2.246-9.376-2.246-13.648 0l-16.505 8.677c-10.758 5.656-23.332-3.479-21.277-15.459l3.152-18.379c.816-4.757-.761-9.611-4.217-12.98l-13.353-13.016c-8.704-8.484-3.901-23.265 8.127-25.013l18.454-2.681c4.776-.694 8.905-3.694 11.041-8.022l8.253-16.722c5.377-10.899 20.919-10.899 26.298 0z" fill="#ffd54f"/><g><path d="m306.898 416.254-18.454-2.681c-4.776-.694-8.905-3.694-11.041-8.022l-8.253-16.722c-5.379-10.899-20.921-10.899-26.3 0l-2.303 4.665 5.95 12.056c39.521 25.143 24.269 48.733 24.269 48.733-3.456 3.369-5.033 8.223-4.217 12.98l3.152 18.379c.607 3.539-.063 6.829-1.585 9.564l11.213 5.895c10.758 5.656 23.332-3.479 21.277-15.459l-3.152-18.379c-.816-4.757.761-9.611 4.217-12.98l13.353-13.016c8.705-8.484 3.902-23.265-8.126-25.013z" fill="#ffc328"/></g></g><path d="m194.017 324.47c24.544 0 44.441-19.897 44.441-44.441v-109.859c0-15.811-12.817-28.628-28.628-28.628-15.811 0-28.628 12.817-28.628 28.628v80.134l-32.313 61.308z" fill="#ffc39c"/><path d="m209.83 141.543c-5.694 0-10.994 1.669-15.453 4.534 7.922 5.092 13.175 13.976 13.175 24.093v109.859c0 18.205-10.951 33.844-26.621 40.713l13.085 3.728c24.544 0 44.441-19.897 44.441-44.441v-109.858c.001-15.811-12.816-28.628-28.627-28.628z" fill="#fdaa8e"/><path d="m0 390.849v118.151c0 1.657 1.343 3 3 3h96.229c.954 0 1.851-.453 2.416-1.221l70.621-95.929c1.295-1.759.992-4.223-.69-5.617l-110.95-91.892c-1.803-1.494-4.487-1.186-5.906.676l-54.106 71.013c-.398.523-.614 1.162-.614 1.819z" fill="#80deea"/><path d="m171.576 409.233-110.95-91.892c-1.803-1.494-4.487-1.186-5.906.676l-9.356 12.28 95.307 78.936c1.682 1.393 1.985 3.857.69 5.616l-71.521 97.151h29.389c.954 0 1.851-.453 2.416-1.221l70.62-95.929c1.296-1.759.993-4.223-.689-5.617z" fill="#4dd0e1"/><path d="m90.663 342.219-15.108 19.318c-6.768 8.654-5.15 21.173 3.596 27.822 8.371 6.364 20.265 5.033 27.021-3.025l15.475-18.454z" fill="#f78e36"/><path d="m296.237 309.744 67.374 104.388 81.826-67.522-42.222-63.8s-31.094-82.348-43.754-128.482l-2.958-131.933c-.979-12.639-11.517-22.395-24.189-22.395-6.511 0-12.434 2.565-16.802 6.758-4.358 4.183-7.17 10.003-7.438 16.504z" fill="#ffc39c"/><path d="m308.074 23.262c.268-6.501 3.08-12.321 7.438-16.504 4.368-4.193 10.292-6.758 16.802-6.758 5.848 0 11.227 2.096 15.436 5.577-.457.379-.905.77-1.333 1.181-4.358 4.183-7.17 10.003-7.438 16.504l-10.758 260.376c-.702 16.987 3.871 33.776 13.091 48.061l42.465 65.794-20.165 16.64-67.374-104.388z" fill="#fdaa8e"/><path d="m317.983 324.47c-24.544 0-44.441-19.897-44.441-44.441v-109.859c0-15.811 12.817-28.628 28.628-28.628 15.811 0 28.628 12.817 28.628 28.628v80.134l32.313 61.308z" fill="#ffc39c"/><path d="m302.17 141.543c5.694 0 10.994 1.669 15.453 4.534-7.922 5.092-13.175 13.976-13.175 24.093v109.859c0 18.205 10.951 33.844 26.621 40.713l-13.085 3.728c-24.544 0-44.441-19.897-44.441-44.441v-109.858c-.001-15.811 12.816-28.628 28.627-28.628z" fill="#fdaa8e"/><path d="m512 390.849v118.151c0 1.657-1.343 3-3 3h-96.229c-.954 0-1.851-.453-2.416-1.221l-70.621-95.929c-1.295-1.759-.992-4.223.69-5.617l110.95-91.892c1.803-1.494 4.487-1.186 5.906.676l54.106 71.013c.398.523.614 1.162.614 1.819z" fill="#80deea"/><path d="m457.28 318.018c-1.419-1.863-4.103-2.17-5.906-.676l-15.643 12.956 45.364 59.538v122.164h27.905c1.657 0 3-1.343 3-3v-118.151c0-.657-.216-1.296-.614-1.818z" fill="#4dd0e1"/><path d="m421.337 342.219 15.108 19.318c6.768 8.654 5.15 21.173-3.596 27.822-8.371 6.364-20.265 5.033-27.021-3.025l-15.475-18.454z" fill="#f78e36"/></g></svg>