<svg id="Capa_1" enable-background="new 0 0 512 512" height="512" viewBox="0 0 512 512" width="512" xmlns="http://www.w3.org/2000/svg"><path d="m260.592 82.723v176.633c0 24.075-4.739 47.913-13.938 70.155l-11.651 28.175-9.869 23.869v130.43h-148.749c-5.523 0-10-4.477-10-10v-120.43l-33.656-37.55c-19.563-21.819-30.39-50.118-30.39-79.426v-82.002c0-8.19 3.317-15.597 8.684-20.964 5.357-5.357 12.774-8.674 20.954-8.674 16.369 0 29.638 13.269 29.638 29.638v-123.662c0-13.403 10.291-24.92 23.663-25.548 14.289-.67 26.074 10.703 26.074 24.848v-33.336c0-6.871 2.781-13.093 7.283-17.595 4.621-4.611 11.036-7.417 18.094-7.278 13.639.267 24.38 11.797 24.38 25.438v32.772c0-6.861 2.781-13.083 7.283-17.585 4.603-4.624 11.025-7.431 18.088-7.288 13.632.275 24.365 11.802 24.365 25.438v23.243c0-1.535.144-3.049.422-4.512 2.174-11.96 12.918-20.923 25.651-20.325 12.702.597 22.623 11.012 23.581 23.508.062.668.093 1.348.093 2.028z" fill="#e89a5e"/><g fill="#d68a5a"><path d="m260.592 82.723v176.633c0 24.075-4.739 47.913-13.938 70.155l-11.651 28.175-9.869 23.869v130.43h-50.303v-31.307l-30.236-33.738c-21.798-24.312-33.81-55.691-33.81-88.358v-82.002c0-11.497 4.481-22.303 12.609-30.431s18.924-12.599 30.421-12.599c5.748 0 11.239 1.133 16.246 3.183v-83.815c0-20.871 16.009-37.972 36.427-38.93.618-.031 1.226-.041 1.834-.041 4.049 0 7.943.628 11.61 1.803.721-9.045 4.595-17.451 11.074-23.941 7.252-7.222 16.854-11.198 27.063-11.198.814 0 1.628.031 2.431.082.061.67.092 1.35.092 2.03z"/><path d="m260.582 82.697v176.654c0 24.083-4.731 47.913-13.923 70.155l-21.527 52.041v130.448h-27.783v-127.364c0-2.037.401-4.053 1.179-5.935l20.348-49.19c9.192-22.242 13.923-46.071 13.923-70.155v-176.617c0-8.716-4.35-16.638-11.081-21.274 4.319-2.959 9.621-4.581 15.321-4.28 13.323.702 23.543 12.176 23.543 25.517z"/><path d="m111.352 58.216v120.119c0 4.265-3.461 7.726-7.726 7.726s-7.726-3.461-7.726-7.726v-143.144c9.065 3.709 15.452 12.62 15.452 23.025z"/><path d="m161.11 24.879v153.456c0 4.265-3.461 7.726-7.726 7.726s-7.726-3.461-7.726-7.726v-176.481c9.065 3.709 15.452 12.62 15.452 23.025z"/><path d="m210.847 58.216v87.256c0 4.275-3.461 7.726-7.726 7.726s-7.726-3.451-7.726-7.726v-110.281c9.065 3.709 15.452 12.62 15.452 23.025z"/><path d="m122.798 268.558c-1.504 1.432-3.42 2.143-5.347 2.143-2.029 0-4.059-.804-5.584-2.39-10.322-10.807-24.24-16.761-39.188-16.761h-19.182c-4.265 0-7.726-3.461-7.726-7.726v-87.473c8.066 4.244 13.938 12.105 15.453 21.428v58.318h11.456c19.203 0 37.087 7.644 50.366 21.531 2.945 3.09 2.832 7.984-.248 10.93z"/></g><path d="m382.435 176.723v176.633c0 24.075-4.739 47.913-13.938 70.155l-11.651 28.175-9.869 23.869v26.434c0 5.523-4.477 10-10 10h-138.749c-5.523 0-10-4.477-10-10v-26.434l-33.656-37.55c-19.563-21.819-30.39-50.118-30.39-79.426v-82.002c0-8.19 3.317-15.597 8.684-20.964 5.357-5.357 12.774-8.674 20.954-8.674 16.369 0 29.638 13.269 29.638 29.638v-123.661c0-13.403 10.291-24.92 23.663-25.548 14.288-.67 26.074 10.703 26.074 24.848v-33.336c0-6.871 2.781-13.093 7.283-17.595 4.621-4.611 11.036-7.417 18.094-7.278 13.639.267 24.38 11.797 24.38 25.438v32.772c0-6.861 2.781-13.083 7.283-17.585 4.603-4.624 11.025-7.431 18.088-7.288 13.632.275 24.365 11.802 24.365 25.438v23.243c0-1.535.144-3.049.422-4.512 2.174-11.96 12.918-20.923 25.651-20.325 13.383.626 23.674 12.154 23.674 25.535z" fill="#fdd1a7"/><path d="m382.426 176.595v176.757c0 24.083-4.731 47.913-13.923 70.155l-21.527 52.041v26.452c0 5.523-4.477 10-10 10h-17.783v-33.368c0-2.037.401-4.053 1.179-5.935l20.348-49.19c9.192-22.242 13.923-46.071 13.923-70.155v-176.618c0-8.716-4.35-16.638-11.081-21.273 4.409-3.021 9.842-4.648 15.678-4.259 13.158.877 23.186 12.207 23.186 25.393z" fill="#ffbc8a"/><path d="m233.192 152.22v120.119c0 4.265-3.461 7.726-7.726 7.726s-7.726-3.461-7.726-7.726v-143.144c9.065 3.709 15.452 12.62 15.452 23.025z" fill="#ffbc8a"/><path d="m282.95 118.883v153.456c0 4.265-3.461 7.726-7.726 7.726s-7.726-3.461-7.726-7.726v-176.481c9.064 3.709 15.452 12.62 15.452 23.025z" fill="#ffbc8a"/><path d="m332.687 152.22v120.119c0 4.265-3.461 7.726-7.726 7.726s-7.726-3.461-7.726-7.726v-143.144c9.065 3.709 15.452 12.62 15.452 23.025z" fill="#ffbc8a"/><path d="m183.455 276.573v91.717c0 4.265-3.451 7.726-7.726 7.726-4.265 0-7.726-3.461-7.726-7.726v-117.74c9.209 5.028 15.452 14.794 15.452 26.023z" fill="#ffbc8a"/><path d="m402.176 115.575-11.938-9.021c-4.113-3.108-5.296-8.778-2.767-13.271l35.008-62.21c3.059-5.437 10.211-6.928 15.188-3.167l27.214 20.564c4.977 3.761 5.496 11.048 1.101 15.476l-50.284 50.666c-3.632 3.66-9.409 4.071-13.522.963z" fill="#fee265"/><path d="m465.984 63.952-50.286 50.657c-3.631 3.661-9.406 4.075-13.524.963l-11.934-9.018c-.378-.286-.729-.59-1.047-.921 3.991 2.254 9.049 1.609 12.352-1.719l50.277-50.663c4.4-4.422 3.878-11.712-1.102-15.475l14.161 10.701c4.974 3.758 5.495 11.047 1.103 15.475z" fill="#fdd330"/><path d="m339.602 94.978-14.303-4.394c-4.928-1.514-7.979-6.438-7.139-11.524l11.62-70.431c1.016-6.155 7.226-10.003 13.189-8.171l32.606 10.016c5.964 1.832 8.943 8.502 6.328 14.166l-29.923 64.809c-2.161 4.681-7.45 7.043-12.378 5.529z" fill="#fee265"/><path d="m381.906 24.645-29.927 64.8c-2.16 4.682-7.445 7.046-12.379 5.53l-14.299-4.392c-.453-.139-.887-.305-1.299-.507 4.521.753 9.054-1.583 11.019-5.84l29.918-64.803c2.622-5.661-.361-12.332-6.329-14.165l16.967 5.212c5.958 1.83 8.942 8.501 6.329 14.165z" fill="#fdd330"/><path d="m426.129 177.611-8.133-12.559c-2.802-4.327-1.974-10.06 1.939-13.417l54.173-46.484c4.734-4.063 11.965-3.018 15.356 2.219l18.54 28.63c3.391 5.237 1.386 12.261-4.258 14.919l-64.581 30.413c-4.664 2.196-10.234.606-13.036-3.721z" fill="#fee265"/><path d="m503.746 150.925-64.579 30.403c-4.664 2.198-10.232.612-13.037-3.72l-8.13-12.556c-.258-.398-.484-.804-.669-1.223 2.979 3.483 7.954 4.607 12.195 2.609l64.573-30.412c5.647-2.65 7.65-9.679 4.257-14.919l9.648 14.899c3.386 5.232 1.384 12.26-4.258 14.919z" fill="#fdd330"/></svg>