<svg id="Capa_1" enable-background="new 0 0 512 512" height="512" viewBox="0 0 512 512" width="512" xmlns="http://www.w3.org/2000/svg"><g><g><path d="m432.461 183.918c0 136.937-117.871 270.029-160.942 314.091-8.517 8.713-22.52 8.713-31.037 0-43.071-44.062-160.942-177.154-160.942-314.091 0-97.456 79.004-176.461 176.46-176.461s176.461 79.005 176.461 176.461z" fill="#756e78"/></g><g><path d="m327.376 22.49c26.037 30.747 41.742 70.526 41.742 113.971 0 143.376-129.212 282.531-166.496 319.701 14.915 17.746 28.251 32.017 37.86 41.847 8.517 8.713 22.52 8.713 31.037 0 43.071-44.062 160.942-177.154 160.942-314.091 0-72.053-43.186-134.019-105.085-161.428z" fill="#665e66"/></g><g><circle cx="256" cy="184.144" fill="#f1faff" r="133.484"/></g><g><path d="m326.366 70.692c12.696 20.429 20.025 44.537 20.025 70.359 0 73.721-59.763 133.484-133.484 133.484-25.822 0-49.936-7.343-70.365-20.038 23.55 37.895 65.56 63.132 113.459 63.132 73.721 0 133.484-59.763 133.484-133.484-.001-47.9-25.224-89.903-63.119-113.453z" fill="#ddeafb"/></g><g><path d="m282.013 188.97c-1.165-1.165-1.165-3.053 0-4.218l34.73-34.73c6.525-6.524 6.601-17.055.227-23.672-6.573-6.824-17.745-6.616-24.444.083l-34.416 34.416c-1.165 1.165-3.053 1.165-4.218 0l-34.73-34.73c-6.525-6.524-17.055-6.6-23.673-.227-6.825 6.572-6.619 17.743.081 24.442l34.418 34.418c1.165 1.165 1.165 3.053 0 4.218l-34.424 34.424c-6.611 6.611-6.964 17.439-.409 24.105 3.313 3.37 7.684 5.055 12.055 5.055 4.326 0 8.651-1.651 11.952-4.951l34.73-34.73c1.165-1.165 3.053-1.165 4.218 0l34.73 34.73c3.3 3.3 7.626 4.951 11.952 4.951s8.651-1.651 11.952-4.951c6.602-6.601 6.602-17.303 0-23.903z" fill="#dd636e"/></g><path d="m316.743 247.603c6.416-6.415 6.577-16.693.521-23.326-7.044 8.821-15.18 16.732-24.208 23.522 3.273 3.163 7.501 4.755 11.735 4.755 4.326 0 8.651-1.651 11.952-4.951z" fill="#da4a54"/><g><path d="m256 512c-7.912 0-15.317-3.118-20.851-8.779-19.572-20.022-48.972-52.534-77.887-93.717-2.367-3.37-1.553-8.021 1.818-10.388 3.37-2.364 8.021-1.552 10.388 1.819 28.339 40.365 57.159 72.235 76.346 91.862 2.705 2.767 6.322 4.291 10.186 4.291s7.482-1.523 10.186-4.29c37.257-38.114 158.817-173.027 158.817-308.878 0-93.189-75.815-169.004-169.003-169.004s-169.004 75.813-169.004 169.002c0 57.448 21.26 120.676 63.19 187.928 2.179 3.494 1.112 8.094-2.383 10.273-3.496 2.179-8.095 1.111-10.273-2.383-43.429-69.655-65.449-135.538-65.449-195.818.001-101.413 82.507-183.918 183.919-183.918s183.917 82.505 183.917 183.918c0 60.282-22.02 126.165-65.449 195.818-35.382 56.749-76.348 101.726-97.617 123.484-5.534 5.662-12.938 8.78-20.851 8.78z"/></g><g><g><path d="m256 325.085c-77.715 0-140.941-63.226-140.941-140.941 0-77.716 63.226-140.942 140.941-140.942 12.992 0 25.864 1.769 38.26 5.257 3.963 1.116 6.273 5.234 5.158 9.199s-5.232 6.274-9.199 5.158c-11.08-3.119-22.592-4.699-34.219-4.699-69.492 0-126.027 56.536-126.027 126.028s56.536 126.026 126.027 126.026 126.028-56.535 126.028-126.027c0-44.683-24.01-86.435-62.661-108.964-3.558-2.074-4.761-6.639-2.687-10.198 2.074-3.558 6.639-4.76 10.198-2.687 43.216 25.191 70.064 71.88 70.064 121.849 0 77.715-63.226 140.941-140.942 140.941z"/></g></g><g><path d="m304.791 260.011c-6.506 0-12.623-2.534-17.225-7.135l-31.566-31.566-31.566 31.566c-4.602 4.6-10.719 7.135-17.225 7.135-6.584 0-12.753-2.587-17.372-7.283-9.337-9.494-9.134-25.019.452-34.606l31.261-31.261-2.564-2.564c-2.912-2.912-2.911-7.634 0-10.546 2.912-2.911 7.634-2.912 10.546.001l5.727 5.728c1.971 1.97 3.057 4.592 3.057 7.381 0 2.79-1.086 5.411-3.059 7.383l-34.423 34.423c-3.82 3.821-3.984 9.923-.365 13.603 1.793 1.822 4.186 2.826 6.738 2.826 2.523 0 4.895-.983 6.68-2.767l34.729-34.729c1.971-1.971 4.593-3.058 7.382-3.058 2.79 0 5.411 1.087 7.383 3.059l34.728 34.727c5.56 5.975 16.416 1.474 16.125-6.678 0-2.523-.983-4.895-2.766-6.678l-34.731-34.73c-4.068-4.069-4.069-10.691-.002-14.762l34.732-34.733c3.615-3.614 3.673-9.546.13-13.225-1.683-1.747-4.015-2.723-6.567-2.746-2.699.008-5.349 1.042-7.235 2.929l-34.416 34.416c-4.071 4.069-10.692 4.07-14.763.001l-34.731-34.731c-3.615-3.613-9.547-3.672-13.227-.129-1.747 1.683-2.723 4.015-2.747 6.566-.026 2.711 1.042 5.347 2.928 7.233l5.62 5.62c2.912 2.912 2.912 7.634 0 10.546-2.912 2.913-7.633 2.912-10.546.001l-5.62-5.62c-4.699-4.699-7.358-11.231-7.296-17.919.062-6.588 2.66-12.686 7.315-17.169 9.493-9.14 24.798-8.995 34.118.325l31.57 31.567 31.251-31.252c4.7-4.699 11.25-7.355 17.921-7.296 6.588.061 12.685 2.658 17.168 7.312 9.144 9.492 8.997 24.797-.325 34.119l-31.566 31.566 31.567 31.566c4.6 4.6 7.135 10.718 7.135 17.225 0 6.506-2.534 12.624-7.136 17.225-4.601 4.599-10.718 7.134-17.224 7.134z"/></g></g></svg>