<svg id="Layer_1" enable-background="new 0 0 512 512" height="512" viewBox="0 0 512 512" width="512" xmlns="http://www.w3.org/2000/svg"><g><path d="m123.664 473.216c24.817 15.959 52.7 27.558 82.572 33.722h99.528c29.872-6.164 57.756-17.763 82.572-33.722l105.051-145.391c4.969-19.45 7.615-39.829 7.615-60.827 0-135.311-109.691-245.002-245.002-245.002s-245.002 109.691-245.002 245.002c0 20.998 2.646 41.377 7.615 60.826z" fill="#ff4155"/><path d="m354.501 59.698-51.278-10.66c-1.331 1.542-1.622 3.823-.55 5.68l30.598 52.998c1.072 1.857 3.193 2.746 5.194 2.364l16.408-49.738z" fill="#ffb332"/><path d="m388.009.087-16.408 49.738.372.644 51.278 10.66c1.331-1.542 1.622-3.823.55-5.68l-30.598-52.998c-1.072-1.857-3.194-2.746-5.194-2.364z" fill="#ffc839"/><path d="m453.812 411.552c18.143-24.785 31.749-53.097 39.575-83.728v-165.674c0-18.141-14.759-32.9-32.899-32.9h-408.975c-18.141 0-32.9 14.759-32.9 32.9v165.674c7.825 30.631 21.432 58.943 39.575 83.728z" fill="#167cc1"/><path d="m112.38 129.25h-60.867c-18.141 0-32.9 14.759-32.9 32.9v165.674c7.825 30.631 21.432 58.943 39.575 83.728h75.065v-35.796l-5.527-179.66c-.057-1.855-1.072-3.571-2.711-4.441-20.766-11.032-15.755-31.118-13.057-38.441.615-1.669.32-3.513-.726-4.952-5.03-6.914-1.784-13.789.386-17.052.398-.6.647-1.269.762-1.96z" fill="#0c62a4"/><path d="m453.812 411.552c6.782-9.264 12.93-19.02 18.377-29.208v-220.194c0-6.344-5.359-11.702-11.702-11.702h-408.974c-6.344 0-11.702 5.359-11.702 11.702v220.194c5.447 10.189 11.595 19.944 18.377 29.208z" fill="#73c3f9"/><path d="m39.811 162.15v220.194c5.447 10.189 11.595 19.944 18.377 29.208h75.065v-35.796l-5.527-179.66c-.057-1.855-1.072-3.571-2.711-4.441-20.766-11.032-15.755-31.118-13.057-38.441.332-.902.391-1.853.217-2.765h-60.662c-6.344-.001-11.702 5.358-11.702 11.701z" fill="#4fabf7"/><path d="m264.142 86.632c-4.639-4.139-11.645-4.139-16.284 0l-126.752 113.103h1.23c2.238-3.707 6.294-6.208 10.916-6.208h245.495c4.622 0 8.679 2.501 10.916 6.208h1.229z" fill="#ffe98d"/><path d="m221.483 110.167-100.377 89.568h1.23c2.238-3.707 6.294-6.208 10.916-6.208h121.754l-10.974-35.757c-30.605-11.541-22.549-47.603-22.549-47.603z" fill="#ffdd40"/><path d="m370.59 52.889c-1.786 5.413-7.349 8.625-12.93 7.465l-3.159-.657-16.645 50.459c.731-.046 1.462-.251 2.135-.64l82.009-47.347c.674-.389 1.216-.92 1.622-1.529l-52.021-10.814z" fill="#ffdd40"/><path d="m383.538 84.375c-17.71-2.949-18.779-20.075-18.724-24.906-2.156 1.042-4.652 1.406-7.154.886l-3.159-.657-16.645 50.459c.731-.046 1.462-.251 2.135-.64z" fill="#ffc839"/><path d="m370.962 53.533c-1.786 5.413-7.349 8.625-12.93 7.465l-55.18-11.471c.405-.61.948-1.14 1.622-1.529l82.008-47.348c.674-.389 1.405-.594 2.135-.64z" fill="#ffe98d"/><path d="m344.242 25.038-39.768 22.96c-.674.389-1.217.92-1.622 1.529l55.18 11.471c5.581 1.16 11.144-2.052 12.93-7.465-26.907-1.752-26.72-28.495-26.72-28.495z" fill="#ffdd40"/><path d="m211.013 471.289-4.778 35.649c16.07 3.315 32.713 5.062 49.765 5.062s33.695-1.746 49.765-5.062l-4.777-35.649z" fill="#d3dcfb"/><path d="m249.947 504.572c.992-7.402 7.308-12.928 14.776-12.928h38.992l-2.728-20.355h-89.974l-4.778 35.649c13.852 2.858 28.132 4.542 42.73 4.955z" fill="#bec8f7"/><path d="m56.782 409.625c18.06 25.181 40.77 46.799 66.882 63.591h264.672c26.112-16.791 48.822-38.41 66.882-63.591z" fill="#e9efff"/><path d="m133.253 409.625h-76.47c18.06 25.181 40.77 46.799 66.882 63.591h18.875c-10.158-7.027-9.287-20.568-9.287-20.568z" fill="#bec8f7"/><circle cx="256" cy="441.421" fill="#d3dcfb" r="14.183"/><path d="m130.359 373.926 101.137-90.248-101.137-90.248v-1.484c-5.63 1.321-9.86 6.389-9.86 12.408v158.649c0 6.018 4.229 11.086 9.86 12.408z" fill="#ffc839"/><path d="m381.641 191.947v1.485l-101.138 90.248 101.139 90.248v1.483c5.63-1.321 9.859-6.389 9.859-12.407v-158.65c0-6.018-4.229-11.086-9.86-12.407z" fill="#ffc839"/><path d="m236.646 279.073c11.027-9.839 27.68-9.839 38.707 0l6.241 5.569 102.777-91.71c-1.701-.844-3.606-1.331-5.624-1.331h-245.494c-2.018 0-3.923.488-5.624 1.331l102.777 91.71z" fill="#ffb332"/><path d="m267.967 157.77c-5.323-9.206-18.612-9.206-23.934 0l-53.028 91.714 39.4 35.158 6.241-5.569c11.027-9.839 27.68-9.839 38.707 0l6.241 5.569 39.401-35.158z" fill="#ff4155"/><path d="m191.005 249.484 39.4 35.158 6.241-5.569c5.514-4.919 12.434-7.379 19.354-7.379v-83.306c-20.695-8.594-11.967-30.617-11.967-30.617z" fill="#e80054"/><g><path d="m256 239.773c-3.991 0-7.227-3.235-7.227-7.227v-36.932c0-3.992 3.235-7.227 7.227-7.227 3.991 0 7.227 3.235 7.227 7.227v36.932c0 3.992-3.236 7.227-7.227 7.227z" fill="#e9efff"/></g><g><path d="m256 264.926c-3.991 0-7.227-3.235-7.227-7.227v-.9c0-3.992 3.235-7.227 7.227-7.227 3.991 0 7.227 3.235 7.227 7.227v.9c0 3.992-3.236 7.227-7.227 7.227z" fill="#e9efff"/></g><path d="m275.353 277.146c-11.027-9.839-27.68-9.839-38.707 0l-109.018 97.279c1.701.844 3.606 1.331 5.624 1.331h245.495c2.018 0 3.923-.487 5.624-1.331z" fill="#ffe98d"/><path d="m282.674 283.678-7.321-6.533c-11.027-9.839-27.68-9.839-38.707 0l-109.018 97.279c1.701.844 3.606 1.331 5.624 1.331h137.178c-.084-.116-.162-.231-.248-.346-41.512-55.903 12.492-91.731 12.492-91.731z" fill="#ffdd40"/></g></svg>