<svg id="Capa_1" enable-background="new 0 0 512 512" height="512" viewBox="0 0 512 512" width="512" xmlns="http://www.w3.org/2000/svg"><g><path d="m418.127 256c0 66.513-1.99 133.672-5.933 200.587-1.566 26.58-22.549 47.865-49.085 50.06-86.163 7.129-172.746 7.139-258.737.018-26.532-2.197-47.511-23.482-49.077-50.058-3.937-66.814-5.927-134.087-5.927-200.607s1.991-133.793 5.928-200.608c1.566-26.576 22.546-47.861 49.077-50.058 85.991-7.121 172.573-7.111 258.737.018 26.535 2.195 47.518 23.481 49.085 50.06 3.942 66.916 5.932 134.075 5.932 200.588z" fill="#617881"/><path d="m79.572 49.336c-3.4 68.837-5.12 138.137-5.12 206.664s1.72 137.828 5.12 206.664c.917 18.533 9.529 34.583 22.108 43.711-25.25-3.369-44.864-24.096-46.379-49.768-3.945-66.817-5.933-134.088-5.933-200.607s1.988-133.79 5.934-200.607c1.514-25.672 21.128-46.4 46.378-49.768-12.578 9.127-21.191 25.177-22.108 43.711z" fill="#404a4a"/><path d="m387.217 256c0 57.123-1.978 115.298-5.872 172.885-.659 9.642-9.591 17.534-20.789 18.337-42.083 3.029-84.815 4.564-127.011 4.564-42.124 0-84.722-1.535-126.62-4.553-11.198-.804-20.13-8.684-20.779-18.327-.659-9.694-1.257-19.398-1.803-29.123v-.01c-.834-14.835-1.545-29.711-2.122-44.576-.515-13.083-.927-26.177-1.226-39.24-.484-20.058-.721-40.064-.721-59.956 0-21.5.278-43.134.835-64.819.34-13.063.773-26.156 1.319-39.24.598-14.865 1.329-29.731 2.205-44.576v-.01c.453-8.097.968-16.184 1.514-24.261.649-9.642 9.581-17.523 20.779-18.327 41.897-3.018 84.495-4.553 126.62-4.553 42.196 0 84.928 1.535 127.011 4.564 11.198.803 20.13 8.695 20.789 18.337 3.893 57.586 5.871 115.76 5.871 172.884z" fill="#da4a54"/><g><path d="m432.899 221.215h-3.263c7.31 0 13.925-2.966 18.718-7.759 4.793-4.787 7.753-11.408 7.753-18.718 0-14.62-11.851-26.471-26.471-26.471h-3.263c7.31 0 13.931-2.959 18.718-7.753 4.793-4.793 7.759-11.408 7.759-18.718 0-14.62-11.857-26.471-26.477-26.471h-263.89l57.732 192.682c24.82 0 46.89 15.778 54.927 39.257l18.212 53.239c2.169 6.343 6.242 11.642 11.44 15.354 5.198 3.718 11.528 5.849 18.231 5.849 7.184 0 13.735-2.283 19.06-6.115h.006c10.168-7.316 15.847-20.274 12.881-33.686l-12.135-54.807h93.325c14.62 0 26.471-11.851 26.471-26.471s-11.851-26.471-26.471-26.471h-3.263c7.31 0 13.925-2.966 18.718-7.753s7.753-11.408 7.753-18.718c0-14.619-11.851-26.47-26.471-26.47z" fill="#f1d0a5"/><path d="m342.084 415.592c-19.066 6.109-34.034-22.923-45.809-64.976-11.775-42.052-43.614-57.198-76.061-57.198v14.589c24.82 0 46.89 15.778 54.927 39.257l18.212 53.239c2.169 6.343 6.242 11.642 11.44 15.354 5.198 3.718 11.528 5.849 18.231 5.849 7.185.001 13.736-2.282 19.06-6.114z" fill="#f1b986"/><path d="m452.85 141.796c0-14.62-11.857-26.471-26.477-26.471h-254.046l47.887 77.155c0-21.867 10.453-58.039 85.313-58.039 74.866 0 154.633-10.94 139.563 26.072 4.794-4.792 7.76-11.406 7.76-18.717z" fill="#f1b986"/><path d="m220.214 120.861v181.6c0 7.458-6.047 13.495-13.495 13.495h-125.724c-.484-20.058-.721-40.064-.721-59.956 0-21.5.278-43.134.835-64.819.721-27.908 1.885-55.908 3.523-83.816h122.087c7.448 0 13.495 6.037 13.495 13.496z" fill="#6bbef6"/><path d="m220.214 120.861v44.576c0-7.448-6.047-13.495-13.495-13.495h-124.292c.598-14.865 1.329-29.731 2.205-44.576v-.01h122.087c7.448-.001 13.495 6.046 13.495 13.505z" fill="#528ecb"/></g><g fill="#404a4a"><path d="m281.621 39.309h-94.646c-4.267 0-7.726-3.459-7.726-7.726s3.459-7.726 7.726-7.726h94.646c4.267 0 7.726 3.459 7.726 7.726s-3.459 7.726-7.726 7.726z"/><path d="m306.327 39.312c-3.308 0-6.286-2.187-7.328-5.308-1.039-3.11.08-6.665 2.715-8.616 5.392-3.992 13.274.619 12.253 7.328-.569 3.734-3.846 6.596-7.64 6.596z"/></g></g></svg>