<svg id="Capa_1" enable-background="new 0 0 512 512" height="512" viewBox="0 0 512 512" width="512" xmlns="http://www.w3.org/2000/svg"><g><path d="m478.976 115.556h-30.336c-2.723 0-5.162 1.681-6.132 4.225l-17.332 45.448c-.437 1.145-.023 2.44.997 3.12l17.946 11.964v142.424h39.379v-142.424l17.946-11.964c1.02-.68 1.433-1.975.997-3.12l-17.332-45.448c-.97-2.544-3.41-4.225-6.133-4.225z" fill="#d8e2f3"/><path d="m444.118 300.333h39.379v22.404h-39.379z" fill="#bacdea"/><path d="m423.116 448.641v-119.34c0-3.625 2.938-6.563 6.563-6.563h68.257c3.625 0 6.563 2.938 6.563 6.563v119.34c0 13.499-10.943 24.443-24.443 24.443h-32.498c-13.498 0-24.442-10.944-24.442-24.443z" fill="#df646e"/><path d="m497.937 322.738h-25.502c3.625 0 6.563 2.938 6.563 6.563v119.34c0 13.5-10.944 24.443-24.443 24.443h25.502c13.5 0 24.443-10.943 24.443-24.443v-119.34c0-3.625-2.938-6.563-6.563-6.563z" fill="#d82f3c"/><path d="m147.872 326.108h87.313v42.518h-87.313z" fill="#bacdea"/><path d="m80.88 326.108c-22.924 0-41.575-18.65-41.575-41.575v-204.041c0-22.925 18.651-41.575 41.575-41.575h221.296c22.924 0 41.575 18.65 41.575 41.575v204.042c0 22.925-18.651 41.575-41.575 41.575h-221.296z" fill="#d8e2f3"/><path d="m302.176 38.916h-22.734c22.924 0 41.575 18.65 41.575 41.575v204.042c0 22.925-18.651 41.575-41.575 41.575h22.734c22.924 0 41.575-18.65 41.575-41.575v-204.041c.001-22.926-18.65-41.576-41.575-41.576z" fill="#bacdea"/><path d="m302.176 246.838h-221.295c-4.561 0-8.259-3.698-8.259-8.259v-158.087c0-4.561 3.698-8.259 8.259-8.259h221.295c4.561 0 8.259 3.698 8.259 8.259v158.087c0 4.561-3.698 8.259-8.259 8.259z" fill="#df646e"/><path d="m95.927 103.469c0-4.561 3.698-8.259 8.259-8.259h206.249v-14.718c0-4.561-3.698-8.259-8.259-8.259h-221.295c-4.561 0-8.259 3.698-8.259 8.259v158.087c0 4.561 3.698 8.259 8.259 8.259h15.046z" fill="#d82f3c"/><path d="m7.5 380.758v80.196c0 6.7 5.431 12.131 12.131 12.131h343.795c6.7 0 12.131-5.431 12.131-12.131v-80.196c0-6.7-5.431-12.131-12.131-12.131h-343.795c-6.7 0-12.131 5.431-12.131 12.131z" fill="#d8e2f3"/><path d="m363.426 368.627h-28.539c6.7 0 12.131 5.431 12.131 12.131v80.196c0 6.699-5.431 12.131-12.131 12.131h28.539c6.7 0 12.131-5.431 12.131-12.131v-80.196c0-6.7-5.431-12.131-12.131-12.131z" fill="#bacdea"/><circle cx="128.306" cy="420.855" fill="#df646e" r="17.864"/><circle cx="56.229" cy="420.855" fill="#acd980" r="17.864"/><path d="m181.539 107.938-52.92 91.659c-4.44 7.69 1.11 17.302 9.989 17.302h105.839c8.88 0 14.429-9.612 9.989-17.302l-52.92-91.659c-4.438-7.69-15.537-7.69-19.977 0z" fill="#f7e365"/><g><path d="m497.937 315.238h-6.938v-130.911l14.606-9.738c3.961-2.64 5.541-7.59 3.844-12.033l-17.332-45.447c-2.063-5.415-7.345-9.053-13.14-9.053h-30.337c-5.794 0-11.074 3.637-13.141 9.052l-17.333 45.45c-1.693 4.445-.112 9.393 3.846 12.031l14.606 9.738v48.8c0 4.142 3.357 7.5 7.5 7.5s7.5-3.358 7.5-7.5v-52.813c0-2.508-1.253-4.85-3.34-6.24l-14.71-9.807 15.716-41.21h29.047l15.716 41.211-14.709 9.806c-2.087 1.391-3.34 3.732-3.34 6.24v134.924h-24.38v-47.111c0-4.142-3.357-7.5-7.5-7.5s-7.5 3.358-7.5 7.5v47.111h-6.938c-7.755 0-14.063 6.309-14.063 14.063v119.34c0 17.613 14.329 31.943 31.942 31.943h32.498c17.613 0 31.943-14.33 31.943-31.943v-119.34c0-7.755-6.309-14.063-14.063-14.063zm-.937 133.403c0 9.342-7.601 16.943-16.943 16.943h-32.498c-9.342 0-16.942-7.601-16.942-16.943v-118.403h66.383z"/><path d="m317.935 238.579v-158.087c0-8.689-7.069-15.759-15.759-15.759h-221.295c-8.689 0-15.759 7.069-15.759 15.759v158.087c0 8.689 7.069 15.759 15.759 15.759h221.295c8.689-.001 15.759-7.07 15.759-15.759zm-237.813 0v-158.087c0-.418.341-.759.759-.759h221.295c.418 0 .759.34.759.759v158.087c0 .418-.341.759-.759.759h-221.295c-.418-.001-.759-.341-.759-.759z"/><path d="m80.938 278.973c-4.143 0-7.5 3.358-7.5 7.5s3.357 7.5 7.5 7.5h29.979c4.143 0 7.5-3.358 7.5-7.5s-3.357-7.5-7.5-7.5z"/><path d="m363.426 361.126h-34.121c-4.143 0-7.5 3.358-7.5 7.5s3.357 7.5 7.5 7.5h34.121c2.554 0 4.631 2.077 4.631 4.631v80.196c0 2.554-2.077 4.631-4.631 4.631h-343.795c-2.554 0-4.631-2.077-4.631-4.631v-80.196c0-2.554 2.077-4.631 4.631-4.631h274.674c4.143 0 7.5-3.358 7.5-7.5s-3.357-7.5-7.5-7.5h-51.62v-27.518h59.491c27.061 0 49.076-22.015 49.076-49.075v-204.041c0-27.061-22.016-49.076-49.076-49.076h-221.295c-27.061 0-49.075 22.015-49.075 49.076v34.822c0 4.142 3.357 7.5 7.5 7.5s7.5-3.358 7.5-7.5v-34.822c0-18.79 15.286-34.076 34.075-34.076h221.295c18.79 0 34.076 15.286 34.076 34.076v204.042c0 18.789-15.286 34.075-34.076 34.075h-221.295c-18.789 0-34.075-15.286-34.075-34.075v-134.22c0-4.142-3.357-7.5-7.5-7.5s-7.5 3.358-7.5 7.5v134.22c0 27.06 22.015 49.075 49.075 49.075h59.491v27.518h-120.741c-10.824-.001-19.631 8.806-19.631 19.63v80.196c0 10.825 8.807 19.631 19.631 19.631h343.795c10.824 0 19.631-8.806 19.631-19.631v-80.196c0-10.824-8.807-19.631-19.631-19.631zm-208.054-27.518h72.313v27.518h-72.313z"/><path d="m253.167 420.855c0 4.142 3.357 7.5 7.5 7.5h82.701c4.143 0 7.5-3.358 7.5-7.5s-3.357-7.5-7.5-7.5h-82.701c-4.143 0-7.5 3.358-7.5 7.5z"/><path d="m128.307 395.492c-13.986 0-25.364 11.378-25.364 25.364 0 13.985 11.378 25.363 25.364 25.363 13.985 0 25.363-11.378 25.363-25.363 0-13.986-11.378-25.364-25.363-25.364zm0 35.727c-5.715 0-10.364-4.649-10.364-10.363s4.649-10.364 10.364-10.364c5.714 0 10.363 4.649 10.363 10.364s-4.649 10.363-10.363 10.363z"/><path d="m30.865 420.855c0 13.985 11.378 25.363 25.363 25.363s25.363-11.378 25.363-25.363c0-13.986-11.378-25.364-25.363-25.364s-25.363 11.379-25.363 25.364zm35.727 0c0 5.714-4.649 10.363-10.363 10.363s-10.363-4.649-10.363-10.363 4.649-10.364 10.363-10.364 10.363 4.65 10.363 10.364z"/><path d="m208.013 104.188c-3.44-5.959-9.603-9.518-16.484-9.518s-13.044 3.558-16.484 9.518l-52.92 91.66c-3.44 5.96-3.44 13.076 0 19.035 3.441 5.959 9.604 9.517 16.484 9.517h105.84c6.881 0 13.043-3.558 16.484-9.517 3.44-5.959 3.44-13.075 0-19.035zm39.929 103.195c-.351.606-1.392 2.017-3.494 2.017h-105.84c-2.103 0-3.144-1.411-3.494-2.017-.35-.607-1.051-2.214 0-4.035l52.92-91.66c1.052-1.821 2.794-2.018 3.494-2.018s2.442.197 3.494 2.018l52.92 91.66c1.051 1.82.35 3.428 0 4.035z"/><path d="m191.528 134.97c-4.143 0-7.5 3.358-7.5 7.5v23.354c0 4.142 3.357 7.5 7.5 7.5s7.5-3.358 7.5-7.5v-23.354c0-4.142-3.357-7.5-7.5-7.5z"/><path d="m191.528 183.832c-4.143 0-7.5 3.358-7.5 7.5v1.308c0 4.142 3.357 7.5 7.5 7.5s7.5-3.358 7.5-7.5v-1.308c0-4.143-3.357-7.5-7.5-7.5z"/></g></g></svg>