<svg id="Capa_1" enable-background="new 0 0 512 512" height="512" viewBox="0 0 512 512" width="512" xmlns="http://www.w3.org/2000/svg"><path d="m487.532 11.418h-188.555c-9.419 0-17.126 7.706-17.126 17.126v143.041c0 9.419 7.707 17.126 17.126 17.126h38.137c2.129 0 3.855 1.726 3.855 3.856v39.662c0 3.435 4.153 5.155 6.582 2.726l45.115-45.115c.723-.723 1.704-1.129 2.726-1.129h92.14c9.419 0 17.126-7.707 17.126-17.126v-143.042c0-9.419-7.707-17.125-17.126-17.125z" fill="#ff656f"/><path d="m312.101 171.585v-143.042c0-9.419 7.707-17.126 17.126-17.126h-30.25c-9.419 0-17.126 7.706-17.126 17.126v143.041c0 9.419 7.707 17.126 17.126 17.126h30.25c-9.419 0-17.126-7.706-17.126-17.125z" fill="#ff4756"/><path d="m371.219 192.566c0-2.129-1.726-3.856-3.855-3.856h-30.25c2.129 0 3.855 1.726 3.855 3.856v39.662c0 3.435 4.153 5.155 6.582 2.726l23.668-23.668z" fill="#ff4756"/><path d="m318.407 89.768c-.172 5.332 4.14 9.761 9.447 9.761h.019v.003c-.256 0-.518.001-.788.001-5.151.004-9.323 4.184-9.32 9.334.004 5.152 4.184 9.297 9.334 9.293h38.805c1.082 0 1.847 1.057 1.511 2.084l-3.401 10.382c-2.895 8.835-2.38 14.852-2.38 25.2 0 6.087 4.935 11.022 11.022 11.022 5.529 0 10.203-4.097 10.927-9.579.801-6.065 1.34-16.851 11.368-26.506l7.077-6.814c3.942-3.796 9.202-5.917 14.675-5.917h10.122v-61.178c-2.528.001-8.436.002-8.439.002-13.511.009-12.276-13.372-29.08-13.357h-57.19c-5.145 0-9.315 4.171-9.315 9.315v.001c0 5.145 4.171 9.315 9.315 9.315h-1.641c-5.063 0-9.385 3.937-9.554 8.997-.176 5.29 4.06 9.634 9.31 9.634h-2.266c-5.068.001-9.394 3.943-9.558 9.007z" fill="#fed2a4"/><g fill="#ffbd86"><path d="m330.163 80.758h12.527c4.142 0 7.5-3.358 7.5-7.5s-3.358-7.5-7.5-7.5h-19.765c-1.189 1.488-1.936 3.335-2.004 5.369-.176 5.268 4.023 9.594 9.242 9.631z"/><path d="m332.047 62.127h10.642c4.142 0 7.5-3.358 7.5-7.5s-3.358-7.5-7.5-7.5h-17.94c-1.218 1.574-1.949 3.543-1.949 5.688v.001c-.001 5.121 4.134 9.274 9.247 9.311z"/><path d="m366.536 103.16h-46.815c-1.223 1.579-1.958 3.556-1.956 5.707.004 5.152 4.184 9.297 9.334 9.293h38.805c.662 0 1.202.398 1.447.941 3.759-.523 6.685-4.574 6.685-8.441 0-4.142-3.358-7.5-7.5-7.5z"/><path d="m350.189 91.889c0-4.142-3.358-7.5-7.5-7.5h-22.277c-1.192 1.491-1.94 3.341-2.006 5.379-.155 4.801 3.329 8.857 7.897 9.621h16.385c4.143 0 7.501-3.358 7.501-7.5z"/><path d="m120.846 288.682c25.216 26.792 66.476 26.791 91.691-.002l9.265-9.844-14.553-5.636c-3.171-1.228-5.261-4.279-5.261-7.68v-25.295c-9.793 6.755-21.651 10.724-34.422 10.724-13.366 0-25.113-3.67-34.72-9.808v24.084c0 3.579-2.199 6.791-5.536 8.084l-15.336 5.945z"/></g><path d="m161.774 250.705c-10.982-.899-20.736-4.329-28.929-9.564v24.084c0 3.579-2.199 6.791-5.536 8.084l-15.336 5.945 8.873 9.428c11.363 12.073 25.985 18.687 40.928 19.878z" fill="#f6a96c"/><path d="m227.379 148.146c8.431-1.087 16.86 1.61 22.039 6.512v-31.521c0-45.694-37.04-82.735-82.735-82.735s-82.735 37.041-82.735 82.735v32.072c5.492-5.258 14.282-8.249 22.043-7.599v-2.029c0-3.277 2.798-5.866 6.043-5.62 31.988 2.298 63.574-7.867 88.188-23.946 2.298-1.502 5.341-1.128 7.208.879 21.043 22.619 19.948 21.744 19.948 24.697v6.555z" fill="#685e68"/><path d="m112.989 123.136c0-40.738 29.449-74.572 68.215-81.439-4.717-.836-9.563-1.296-14.52-1.296-45.695 0-82.735 37.041-82.735 82.735v32.072c5.492-5.258 14.282-8.249 22.043-7.599v-2.029c0-3.277 2.798-5.866 6.043-5.62.318.023.636.037.954.057z" fill="#554e56"/><path d="m293.445 306.582-74.242-28.752-9.567 10.166c-23.623 25.101-62.279 25.102-85.903.002l-9.172-9.746-73.077 28.331s-33.826 13.906-33.826 52.468v75.591h57.57v66.209h204.473v-66.209h57.57v-75.591c0-38.563-33.826-52.469-33.826-52.469z" fill="#23a8fe"/><path d="m36.698 346.465c0-26.631 16.13-41.499 26.113-48.152l-21.327 8.268s-33.826 13.906-33.826 52.468v75.591h29.041v-88.175z" fill="#0193fa"/><path d="m100.062 303.775c36.411 38.687 95.991 38.686 132.4-.002l14.352-15.25-27.612-10.693-9.567 10.166c-23.623 25.101-62.279 25.102-85.903.002l-9.172-9.746-28.223 10.942z" fill="#60b8fe"/><path d="m269.701 410.599h57.57v25.978h-57.57z" fill="#60b8fe"/><path d="m7.658 410.599h57.57v25.978h-57.57z" fill="#60b8fe"/><path d="m7.658 410.599h29.041v25.978h-29.041z" fill="#23a8fe"/><path d="m269.701 500.85h42.154c8.514 0 15.416-6.902 15.416-15.416v-50.793h-57.57z" fill="#ffbd86"/><path d="m23.074 500.85h42.154v-66.209h-57.57v50.793c0 8.514 6.902 15.416 15.416 15.416z" fill="#ffbd86"/><path d="m36.698 486.372v-51.731h-29.04v50.793c0 8.514 6.902 15.416 15.416 15.416h22.542c-5.286-2.677-8.918-8.148-8.918-14.478z" fill="#f6a96c"/><path d="m227.741 146.285v46.284c0 .502-.026.997-.038 1.497 16.379 2.48 29.207-9.354 29.207-23.889 0-14.563-12.839-26.34-29.169-23.892z" fill="#ffbd86"/><path d="m106.239 193.034v-47.233c-14.557-1.944-29.779 9.228-29.779 24.373 0 14.819 13.067 26.922 29.816 24.387-.012-.508-.037-1.016-.037-1.527z" fill="#ffbd86"/><path d="m249.441 152.744c-5.304-5.033-13.007-7.762-21.7-6.459v46.284c0 .502-.026.997-.038 1.497 8.719 1.32 16.431-1.417 21.738-6.457z" fill="#f6a96c"/><path d="m106.239 188.384c-5.03-4.547-8.079-11.059-8.079-18.209 0-6.947 3.207-13.052 8.079-17.445v-6.928c-14.557-1.944-29.779 9.228-29.779 24.373 0 14.819 13.067 26.922 29.816 24.387-.012-.51-.037-1.017-.037-1.528z" fill="#f6a96c"/><path d="m207.431 113.989c-1.868-2.007-4.91-2.38-7.208-.879-24.614 16.079-57.168 26.244-89.156 23.946-3.244-.246-6.043 2.343-6.043 5.62v49.427c0 31.767 24.891 60.781 62.542 60.781 33.515 0 60.782-27.267 60.782-60.781v-53.417c-.001-2.953.126-2.078-20.917-24.697z" fill="#fed2a4"/><path d="m134.064 192.104v-55.461c-7.62.793-15.325.965-22.997.414-3.244-.246-6.043 2.343-6.043 5.62v49.427c0 31.767 24.891 60.781 62.542 60.781 4.691 0 9.252-.552 13.641-1.562-26.968-6.211-47.143-30.396-47.143-59.219z" fill="#ffbd86"/><path d="m428.643 123.53h35.282c2.662 0 4.82-2.158 4.82-4.82v-63.731c0-2.662-2.158-4.82-4.82-4.82h-35.282c-2.662 0-4.82 2.158-4.82 4.82v63.732c.001 2.661 2.159 4.819 4.82 4.819z" fill="#23a8fe"/><path d="m453.574 118.71v-63.731c0-2.662 2.158-4.82 4.82-4.82h-29.75c-2.662 0-4.82 2.158-4.82 4.82v63.732c0 2.662 2.158 4.82 4.82 4.82h29.75c-2.662-.001-4.82-2.159-4.82-4.821z" fill="#0193fa"/><path d="m353.976 155.692c0 10.213 8.31 18.522 18.522 18.522 9.255 0 17.149-6.919 18.362-16.097 2.185-16.486 4.377-17.505 16.211-28.898 2.558-2.463 5.922-3.82 9.473-3.82h1.692c2.211 3.311 5.979 5.498 10.25 5.498h35.282c6.793 0 12.319-5.527 12.319-12.32v-63.732c0-6.793-5.526-12.32-12.319-12.32h-35.282c-4.755 0-8.881 2.713-10.934 6.667-2.697-.148-3.987-1.229-6.851-3.998-4.074-3.938-9.651-9.329-21.517-9.329-.012 0-.024 0-.036 0h-57.19c-12.675 0-20.811 13.581-14.831 24.735-4.392 5.26-4.987 12.512-2.091 18.26-5.184 5.777-5.56 13.914-1.74 20.021-8.02 11.084-.054 26.645 13.633 26.645h.013 30.649l-.861 2.631c-3.31 10.099-2.754 17.179-2.754 27.535zm107.111-39.796h-29.921v-58.371h29.921zm-134.152-5.37c-1.024 0-1.827-.791-1.828-1.797-.001-1.008.818-1.829 1.82-1.83 4.471-.003-7.22-.004 15.604-.004 4.143 0 7.5-3.358 7.5-7.5s-3.357-7.5-7.5-7.5h-14.816c-.003 0-.006 0-.009 0s-.006 0-.009 0c-1.057 0-1.987-.905-1.951-2.018.03-.948.975-1.75 2.062-1.75.284 0-1.706-.004 14.725-.004 4.143 0 7.5-3.358 7.5-7.5s-3.357-7.5-7.5-7.5c-.593 0-7.107.004-12.459.004-1.013 0-1.849-.829-1.813-1.884.031-.947.974-1.747 2.058-1.747 0 0 .41-.004 12.215-.004 4.143 0 7.5-3.358 7.5-7.5s-3.357-7.5-7.5-7.5h-10.613c-.983-.021-1.777-.824-1.777-1.812 0-1.001.814-1.815 1.815-1.815h57.197.024c5.804 0 7.798 1.927 11.097 5.115 3.33 3.218 7.795 7.535 15.891 8.164v46.257c-7.311.094-14.222 2.931-19.499 8.012-12.663 12.192-17.799 16.031-20.678 37.74-.23 1.745-1.731 3.062-3.491 3.062-1.942 0-3.522-1.58-3.522-3.522 0-18.3-.464-15.325 5.408-33.246 1.922-5.867-2.46-11.92-8.638-11.92h-38.813z"/><path d="m22.916 508.216h288.781c12.636 0 22.916-10.28 22.916-22.916 0-1.446 0-125.215 0-126.384 0-43.091-36.903-58.759-38.475-59.404-.047-.02-.095-.039-.144-.057l-86.194-33.381c-.282-.109-.472-.385-.472-.687v-19.578c13.74-10.722 23.28-26.569 25.724-44.648 16.924-1.289 29.199-15.064 29.199-31.117 0-7.491-2.692-14.646-7.491-20.232v-26.809c0-49.756-40.479-90.235-90.235-90.235s-90.234 40.479-90.234 90.235v27.513c-4.852 5.529-7.488 12.323-7.488 19.528 0 16.066 12.281 29.825 29.187 31.116 2.508 18.732 12.551 35.053 27.198 45.732v18.199c0 .487-.294.915-.748 1.091-10.578 4.101-75.23 29.165-85.824 33.272-.047.018-.094.037-.141.056-13.194 5.421-38.475 24.287-38.475 59.406v126.384c0 12.636 10.28 22.916 22.916 22.916zm21.218-194.813 40.046-15.525c12.003 12.753 29.203 34.121 64.259 40.626 4.063.756 7.985-1.926 8.742-6.005.756-4.073-1.933-7.987-6.006-8.743-28.611-5.309-43.295-22.583-51.903-31.729l13.131-5.091 5.709 6.067c26.614 28.277 70.219 28.271 96.826-.001l6.106-6.488 7.329 2.838 5.186 2.008c-7.87 8.362-22.195 25.941-50.323 31.964-4.051.868-6.631 4.854-5.764 8.904.867 4.051 4.854 6.63 8.904 5.764 33.187-7.107 49.346-27.043 62.279-40.786l41.812 16.192c15.52 6.666 29.145 24.091 29.145 45.517v44.049h-42.57v-30.794c0-4.142-3.357-7.5-7.5-7.5s-7.5 3.358-7.5 7.5v121.045h-189.471v-121.045c0-4.142-3.357-7.5-7.5-7.5s-7.5 3.358-7.5 7.5v30.795h-42.571v-44.049c0-21.54 13.811-38.96 29.134-45.513zm275.479 115.54h-42.57v-10.978h42.57zm-262.044-10.978v10.978h-42.569v-10.978zm-42.569 67.335v-41.356h42.571v49.272h-34.655c-4.365 0-7.916-3.551-7.916-7.916zm296.697 7.916h-34.654v-49.272h42.57v41.356c0 4.365-3.55 7.916-7.916 7.916zm-76.008-307.246v-31.843c8.106 1.447 13.563 8.238 13.563 15.917 0 7.757-5.49 14.482-13.563 15.926zm-144.398-62.967c0-41.485 33.75-75.235 75.234-75.235 41.485 0 75.235 33.75 75.235 75.235v17.147c-1.964-.575-3.993-.965-6.071-1.164v-.485c0-2.473-.21-4.012-1.641-6.235-2.176-3.382-6.808-7.96-21.286-23.521-4.368-4.692-11.435-5.555-16.799-2.047-25.751 16.82-56.67 24.741-84.488 22.746-6.266-.48-12.048 3.619-13.671 9.747-2.191.263-4.666.843-6.514 1.451v-17.639zm-7.488 47.041c0-7.551 6.204-13.715 13.563-15.538v31.464c-8.172-1.458-13.563-8.269-13.563-15.926zm28.582 22.741c-.029-1.736-.019 6.571-.019-48.253 31.395 1.771 64.093-7.573 90.481-24.424 10.22 10.976 15.959 16.946 17.842 19.238v52.624c0 29.415-23.99 53.281-53.282 53.281-31.782 0-54.158-23.719-55.022-52.466zm55.022 67.466c9.482 0 18.89-2.063 26.922-5.536v10.671c0 6.447 4.04 12.344 10.053 14.674l1.567.607c-10.644 11.309-22.724 18.52-39.423 18.521-16.028 0-28.365-6.77-39.031-18.103l2.365-.917c6.177-2.395 10.326-8.454 10.326-15.077v-9.932c8.043 3.191 17.532 5.092 27.221 5.092z"/><path d="m487.374 3.784h-188.555c-13.578 0-24.625 11.047-24.625 24.625v143.042c0 13.579 11.047 24.625 24.625 24.625h34.492v36.018c0 10.08 12.231 15.181 19.386 8.029l44.046-44.047h90.631c13.579 0 24.626-11.047 24.626-24.625v-48.911c0-4.142-3.357-7.5-7.5-7.5s-7.5 3.358-7.5 7.5v48.911c0 5.308-4.318 9.625-9.626 9.625h-92.14c-3.035 0-5.888 1.182-8.03 3.326l-38.893 38.894v-30.864c0-6.261-5.094-11.355-11.355-11.355h-38.137c-5.308 0-9.625-4.318-9.625-9.625v-143.042c0-5.308 4.317-9.625 9.625-9.625h188.555c5.308 0 9.626 4.318 9.626 9.625v59.13c0 4.142 3.357 7.5 7.5 7.5s7.5-3.358 7.5-7.5v-59.13c0-13.579-11.047-24.626-24.626-24.626z"/></svg>