<svg id="svg11117" enable-background="new 0 0 512 512" height="512" viewBox="0 0 512 512" width="512" xmlns="http://www.w3.org/2000/svg" xmlns:svg="http://www.w3.org/2000/svg"><g clip-rule="evenodd" fill-rule="evenodd"><path id="circle14552" d="m327.46 186.888c0 39.348-31.898 71.246-71.246 71.246-39.348 0-71.246-31.898-71.246-71.246 0-39.348 31.898-71.246 71.246-71.246 39.347 0 71.246 31.898 71.246 71.246z" fill="#b2dfdb"/><g fill="#78909c"><path id="path13094_1_" d="m256 50.237c-34.722 0-67.255 12.846-92.908 28.232-25.653 15.385-44.168 32.181-52.474 46.566-2.834 4.909-2.645 8.895-2.387 12.764s1.045 7.807 2.183 12.182c2.277 8.751 6.054 19.155 10.968 30.935 9.828 23.56 24.21 52.443 40.026 80.726s33.007 55.879 48.648 76.849c7.82 10.485 15.2 19.297 22.253 25.946 7.053 6.65 13.203 12.397 23.691 12.397 10.489 0 16.639-5.747 23.691-12.397 7.053-6.65 14.432-15.461 22.253-25.946 15.641-20.97 32.832-48.566 48.648-76.849s30.199-57.166 40.026-80.726c4.914-11.78 8.691-22.185 10.968-30.935 1.139-4.375 1.925-8.313 2.183-12.182s.447-7.855-2.388-12.764c-8.306-14.385-26.82-31.181-52.474-46.566s-58.185-28.232-92.907-28.232zm0 23.507c28.822 0 57.799 11.08 80.818 24.885 23.019 13.806 43.6 36.03 43.495 37.598s-.567 4.367-1.469 7.836c-1.805 6.937-5.262 16.641-9.917 27.803-9.312 22.323-23.404 50.672-38.853 78.298s-32.322 54.622-46.974 74.267c-7.326 9.823-14.144 17.819-19.539 22.906s-9.937 5.989-7.56 5.989-2.165-.903-7.56-5.989-12.212-13.083-19.539-22.906c-14.653-19.645-31.526-46.641-46.974-74.267-15.449-27.626-29.541-55.974-38.853-78.298-4.656-11.162-8.112-20.866-9.917-27.803-.903-3.469-1.365-6.268-1.469-7.836-.105-1.568 20.476-23.793 43.495-37.598 23.017-13.805 51.994-24.885 80.816-24.885z"/><path id="path13096" d="m256 391.159c-12.483 0-23.95 2.986-33.119 8.652s-16.733 15.009-16.733 26.65 7.564 20.984 16.733 26.65 20.636 8.652 33.119 8.652 23.95-2.986 33.119-8.652 16.733-15.009 16.733-26.65-7.564-20.984-16.733-26.65-20.636-8.652-33.119-8.652zm0 23.507c8.557 0 16.143 2.287 20.763 5.142s5.581 5.29 5.581 6.652c0 1.363-.961 3.797-5.581 6.652s-12.206 5.142-20.763 5.142-16.143-2.287-20.763-5.142-5.581-5.29-5.581-6.652c0-1.363.961-3.797 5.581-6.652 4.619-2.854 12.206-5.142 20.763-5.142z"/><path id="path13098" d="m234.927 111.373c-43.294 11.601-69.166 56.412-57.565 99.706s56.412 69.166 99.706 57.565 69.166-56.412 57.565-99.706-56.412-69.166-99.706-57.565zm6.084 22.707c31.023-8.313 62.603 9.92 70.915 40.943s-9.92 62.603-40.943 70.915c-31.023 8.313-62.603-9.92-70.915-40.943-8.313-31.023 9.92-62.603 40.943-70.915z"/><path id="path13100" d="m274.426 159.48c-3.054.092-5.952 1.369-8.081 3.561l-37.312 37.312c-4.683 4.496-4.834 11.938-.338 16.621s11.937 4.834 16.621.338c.115-.11.228-.223.338-.338l37.312-37.312c4.657-4.524 4.764-11.966.241-16.622-2.298-2.367-5.484-3.658-8.781-3.56z"/><path id="path13102" d="m237.216 159.48c-6.492.007-11.749 5.276-11.742 11.768.003 3.17 1.287 6.203 3.559 8.413l37.312 37.312c4.496 4.683 11.937 4.834 16.621.338 4.683-4.496 4.834-11.938.338-16.621-.11-.115-.223-.228-.338-.338l-37.312-37.312c-2.216-2.278-5.26-3.563-8.438-3.56z"/></g></g></svg>