<svg id="Layer_1" enable-background="new 0 0 512 512" height="512" viewBox="0 0 512 512" width="512" xmlns="http://www.w3.org/2000/svg"><g><path d="m245.002 21.996c-105.621 0-195.629 66.837-230.044 160.523l102.989 294.003c37.046 22.513 80.536 35.478 127.055 35.478 135.311 0 245.002-109.691 245.002-245.002s-109.691-245.002-245.002-245.002z" fill="#1c2e7a"/><path d="m314.045 373.568-18.694-24.189c-4.075-5.273-10.487-8.422-17.153-8.422h-165.526c-26.743 0-48.499-21.757-48.499-48.499v-111.308h-48.695c-9.998 26.718-15.478 55.641-15.478 85.848 0 89.316 47.8 167.459 119.208 210.27h159.384c27.499 0 49.999-22.499 49.999-49.999v-46.452c-5.738-.069-11.029-2.699-14.546-7.249z" fill="#73c3f9"/><path d="m129.055 427.27v-86.312h-16.384c-26.743 0-48.499-21.757-48.499-48.499v-111.309h-48.694c-9.998 26.718-15.478 55.641-15.478 85.848 0 89.316 47.8 167.459 119.208 210.27h59.847c-27.5 0-50-22.499-50-49.998z" fill="#4fabf7"/><path d="m269.297 401.406h-229.149c3.378 5.138 6.943 10.141 10.687 15h218.462c4.142 0 7.5-3.357 7.5-7.5s-3.358-7.5-7.5-7.5z" fill="#9bd8f9"/><path d="m269.297 366.92h-241.601c-2.123 0-4.036.886-5.4 2.303 1.977 4.301 4.078 8.534 6.293 12.697h240.708c4.142 0 7.5-3.357 7.5-7.5s-3.358-7.5-7.5-7.5z" fill="#9bd8f9"/><g><path d="m51.84 347.433h-24.144c-4.142 0-7.5-3.357-7.5-7.5s3.358-7.5 7.5-7.5h24.144c4.142 0 7.5 3.357 7.5 7.5s-3.358 7.5-7.5 7.5z" fill="#9bd8f9"/></g><g><path d="m37.59 312.946h-9.895c-4.142 0-7.5-3.357-7.5-7.5s3.358-7.5 7.5-7.5h9.895c4.142 0 7.5 3.357 7.5 7.5s-3.358 7.5-7.5 7.5z" fill="#9bd8f9"/></g><g><path d="m37.59 278.46h-9.895c-4.142 0-7.5-3.358-7.5-7.5 0-4.143 3.358-7.5 7.5-7.5h9.895c4.142 0 7.5 3.357 7.5 7.5 0 4.142-3.358 7.5-7.5 7.5z" fill="#9bd8f9"/></g><path d="m292.959 227.477c-25.615 0-41.451-28.007-28.287-49.953l78.672-131.185h-230.673c-27.499 0-49.999 22.5-49.999 49.999v196.121c0 27.499 22.5 49.999 49.999 49.999h165.526c6.249 0 12.145 2.895 15.966 7.839l18.694 24.189c8.078 10.453 23.854 10.453 31.932 0l18.694-24.189c3.821-4.945 9.717-7.839 15.966-7.839 27.499 0 49.999-22.5 49.999-49.999v-64.981h-136.489z" fill="#ffdd40"/><path d="m153.439 292.458v-196.12c0-27.499 22.5-49.999 49.999-49.999h-90.766c-27.499 0-49.999 22.5-49.999 49.999v196.121c0 27.499 22.5 49.999 49.999 49.999h90.766c-27.499-.001-49.999-22.501-49.999-50z" fill="#ffc839"/><path d="m368.964 342.457h-90.766c6.249 0 12.145 2.895 15.966 7.839l18.694 24.189c8.078 10.453 23.854 10.453 31.932 0l18.694-24.189c2.726-3.527 6.51-6.004 10.723-7.138-1.692-.455-3.452-.701-5.243-.701z" fill="#ffc839"/><ellipse cx="472.882" cy="46.339" fill="#ff4155" rx="13.917" ry="13.917" transform="matrix(.383 -.924 .924 .383 249.106 465.492)"/><circle cx="475.048" cy="44.271" fill="#ff7186" r="6.108"/><path d="m507.051 176.756-.001-.001-92.257-153.843c-13.352-22.266-45.779-22.302-59.15.001l-92.258 153.84c-13.76 22.941 2.806 52.225 29.574 52.225h184.517c26.749-.001 43.342-29.269 29.575-52.222z" fill="#e9efff"/><path d="m384.556 228.277c-5.351-6.008-2.472-11.996-.575-14.744.638-.924.599-2.166-.093-3.05-4.04-5.162-1.88-9.624-.147-11.899.74-.972.747-2.316-.028-3.261-6.866-8.367-1.389-15.287.746-17.46.48-.489.758-1.14.758-1.826v-19.237c0-.602-.209-1.189-.591-1.653-2.574-3.12-1.004-5.863-.022-7.071.389-.479.613-1.069.613-1.687v-56.437c0-.861-.417-1.678-1.133-2.158-14.282-9.583-10.698-27.82-8.832-34.373.369-1.295-.306-2.622-1.539-3.163-5.574-2.446-6.301-8.333-6.23-11.672.028-1.3-.887-2.39-2.16-2.657-6.808-1.429-8.92-8.907-9.492-11.837-.063-.322-.195-.617-.364-.887l-92.083 153.548c-13.76 22.94 2.806 52.225 29.574 52.225h92.026c-.106-.253-.243-.493-.428-.701z" fill="#bec8f7"/><path d="m292.959 196.977h184.517c1.932 0 3.125-2.107 2.132-3.764l-92.259-153.843c-.965-1.61-3.298-1.61-4.263 0l-92.259 153.843c-.993 1.657.2 3.764 2.132 3.764z" fill="#ff4155"/><path d="m383.713 195.324c-6.866-8.367-1.389-15.287.746-17.46.48-.489.758-1.14.758-1.826v-19.237c0-.602-.209-1.189-.591-1.653-2.574-3.12-1.004-5.863-.022-7.071.389-.479.613-1.069.613-1.687v-56.438c0-.861-.417-1.678-1.133-2.158-14.282-9.583-10.698-27.82-8.832-34.373.105-.369.117-.739.064-1.094l-84.489 140.887c-.993 1.657.2 3.764 2.132 3.764h91.334c.005-.587-.185-1.173-.58-1.654z" fill="#e80054"/><path d="m385.218 38.163c.824 0 1.649.403 2.132 1.207l92.258 153.843c.993 1.657-.2 3.764-2.132 3.764h-184.517c-1.932 0-3.125-2.107-2.132-3.764l92.259-153.843c.483-.805 1.307-1.207 2.132-1.207m0-15c-6.108 0-11.855 3.255-14.996 8.494l-92.258 153.843c-3.233 5.391-3.318 12.138-.219 17.609 3.098 5.471 8.928 8.869 15.215 8.869h184.517c6.287 0 12.117-3.398 15.215-8.869s3.014-12.218-.22-17.61l-92.258-153.844c-3.141-5.238-8.888-8.492-14.996-8.492z" fill="#ff7186"/><path d="m384.293 196.977h-91.334c-1.932 0-3.125-2.107-2.132-3.764l84.489-140.887c-.133-.891-.721-1.682-1.602-2.069-5.574-2.446-6.301-8.333-6.23-11.672.012-.581-.172-1.115-.484-1.558l-89.037 148.471c-3.233 5.391-3.318 12.139-.219 17.609 3.098 5.471 8.928 8.869 15.215 8.869h91.472c-.02-.531-.201-1.056-.543-1.493-4.04-5.162-1.88-9.624-.147-11.899.363-.476.547-1.042.552-1.607z" fill="#ff4155"/><g><ellipse cx="385.217" cy="166.476" fill="#e9efff" rx="10.679" ry="10.679" transform="matrix(.23 -.973 .973 .23 134.691 503.14)"/></g><g><g><g><path d="m385.217 147.422c-5.523 0-10-4.478-10-10v-38.91c0-5.522 4.477-10 10-10s10 4.478 10 10v38.909c0 5.523-4.477 10.001-10 10.001z" fill="#e9efff"/></g></g></g><g><path d="m304.157 277.433h-178.896c-4.142 0-7.5-3.357-7.5-7.5s3.358-7.5 7.5-7.5h178.896c4.142 0 7.5 3.357 7.5 7.5s-3.358 7.5-7.5 7.5z" fill="#fff0c2"/></g><g><path d="m230.657 242.946h-105.396c-4.142 0-7.5-3.357-7.5-7.5s3.358-7.5 7.5-7.5h105.396c4.142 0 7.5 3.357 7.5 7.5s-3.358 7.5-7.5 7.5z" fill="#fff0c2"/></g><g><path d="m225.657 208.46h-100.396c-4.142 0-7.5-3.357-7.5-7.5s3.358-7.5 7.5-7.5h100.396c4.142 0 7.5 3.357 7.5 7.5 0 4.142-3.358 7.5-7.5 7.5z" fill="#fff0c2"/></g><g><path d="m242.157 173.973h-116.896c-4.142 0-7.5-3.357-7.5-7.5s3.358-7.5 7.5-7.5h116.896c4.142 0 7.5 3.357 7.5 7.5 0 4.142-3.358 7.5-7.5 7.5z" fill="#fff0c2"/></g><g><path d="m263.657 139.486h-138.396c-4.142 0-7.5-3.357-7.5-7.5s3.358-7.5 7.5-7.5h138.396c4.142 0 7.5 3.357 7.5 7.5s-3.358 7.5-7.5 7.5z" fill="#fff0c2"/></g><ellipse cx="366.862" cy="279.617" fill="#ff4155" rx="28.394" ry="29.876"/><g><path d="m366.862 333.288c-4.142 0-7.5-3.357-7.5-7.5v-19.359c0-4.143 3.358-7.5 7.5-7.5s7.5 3.357 7.5 7.5v19.359c0 4.143-3.358 7.5-7.5 7.5z" fill="#ff4155"/></g><g><path d="m344.787 273.712c-1.327 0-2.67-.352-3.887-1.091l-15.933-9.679c-3.54-2.15-4.667-6.764-2.516-10.304 2.15-3.54 6.763-4.668 10.304-2.517l15.933 9.679c3.54 2.15 4.667 6.764 2.516 10.304-1.411 2.323-3.884 3.608-6.417 3.608z" fill="#ff4155"/></g><g><path d="m328.868 310.203c-2.534 0-5.006-1.283-6.417-3.607-2.15-3.54-1.024-8.153 2.516-10.304l15.933-9.679c3.542-2.152 8.154-1.024 10.304 2.517 2.15 3.54 1.024 8.153-2.516 10.304l-15.933 9.679c-1.217.738-2.561 1.09-3.887 1.09z" fill="#ff4155"/></g><g><path d="m388.936 273.712c-2.534 0-5.006-1.283-6.417-3.607-2.15-3.54-1.024-8.153 2.517-10.304l15.934-9.679c3.54-2.151 8.153-1.024 10.304 2.517 2.15 3.54 1.024 8.153-2.517 10.304l-15.934 9.679c-1.216.738-2.56 1.09-3.887 1.09z" fill="#ff7186"/></g><path d="m391.171 295.061-8.652-5.932c-26.093-3.87-15.657-28.824-15.657-28.824v-10.565c-15.682 0-28.394 13.376-28.394 29.876s12.712 29.876 28.394 29.876c10.309.001 19.335-5.781 24.309-14.431z" fill="#e80054"/><g><path d="m366.862 260.306c-4.142 0-7.5-3.358-7.5-7.5v-19.359c0-4.143 3.358-7.5 7.5-7.5s7.5 3.357 7.5 7.5v19.359c0 4.142-3.358 7.5-7.5 7.5z" fill="#ff7186"/></g><g><path d="m404.855 310.203c-1.327 0-2.67-.352-3.886-1.091l-15.934-9.679c-3.541-2.15-4.667-6.764-2.517-10.304s6.764-4.669 10.304-2.517l15.934 9.679c3.54 2.15 4.667 6.764 2.517 10.304-1.412 2.324-3.884 3.608-6.418 3.608z" fill="#ff7186"/></g><circle cx="362.212" cy="278.116" fill="#ff7186" r="8.183"/><ellipse cx="269.297" cy="47.304" fill="#ff4155" rx="25.025" ry="26.332"/><g><path d="m269.297 94.607c-3.651 0-6.61-2.959-6.61-6.61v-17.063c0-3.651 2.96-6.61 6.61-6.61s6.61 2.959 6.61 6.61v17.063c0 3.651-2.959 6.61-6.61 6.61z" fill="#ff4155"/></g><g><path d="m249.841 42.099c-1.169 0-2.353-.31-3.426-.961l-14.043-8.53c-3.12-1.895-4.113-5.961-2.218-9.081s5.961-4.114 9.082-2.218l14.043 8.53c3.12 1.895 4.113 5.961 2.218 9.081-1.244 2.047-3.423 3.179-5.656 3.179z" fill="#ff4155"/></g><g><path d="m235.811 74.261c-2.233 0-4.412-1.131-5.656-3.18-1.895-3.12-.902-7.186 2.218-9.081l14.043-8.531c3.121-1.897 7.187-.903 9.082 2.218 1.895 3.12.902 7.186-2.218 9.081l-14.043 8.53c-1.073.653-2.257.963-3.426.963z" fill="#ff4155"/></g><g><path d="m288.753 42.099c-2.233 0-4.412-1.131-5.656-3.179-1.895-3.12-.902-7.186 2.218-9.081l14.043-8.53c3.12-1.896 7.186-.903 9.081 2.218 1.895 3.12.902 7.186-2.218 9.081l-14.043 8.53c-1.072.651-2.256.961-3.425.961z" fill="#ff7186"/></g><path d="m290.722 60.916-7.625-5.228c-22.998-3.411-13.8-25.405-13.8-25.405v-9.311c-13.821 0-25.026 11.789-25.026 26.332s11.204 26.332 25.026 26.332c9.086-.001 17.041-5.097 21.425-12.72z" fill="#e80054"/><g><path d="m269.297 30.283c-3.651 0-6.61-2.959-6.61-6.61v-17.063c0-3.651 2.96-6.61 6.61-6.61s6.61 2.959 6.61 6.61v17.063c0 3.651-2.959 6.61-6.61 6.61z" fill="#ff7186"/></g><g><path d="m302.783 74.261c-1.169 0-2.353-.31-3.425-.961l-14.043-8.53c-3.12-1.895-4.113-5.961-2.218-9.081s5.962-4.115 9.081-2.218l14.043 8.529c3.121 1.895 4.113 5.961 2.218 9.081-1.244 2.048-3.423 3.18-5.656 3.18z" fill="#ff7186"/></g><path d="m272.41 45.981c0 3.983-3.229 7.212-7.212 7.212s-7.212-3.229-7.212-7.212 3.229-7.212 7.212-7.212 7.212 3.229 7.212 7.212z" fill="#ff7186"/></g></svg>